<?xml version="1.0" encoding="utf-8" standalone="no"?>
<!DOCTYPE svg PUBLIC "-//W3C//DTD SVG 1.1//EN"
  "http://www.w3.org/Graphics/SVG/1.1/DTD/svg11.dtd">
<svg xmlns:xlink="http://www.w3.org/1999/xlink" width="460.8pt" height="345.6pt" viewBox="0 0 460.8 345.6" xmlns="http://www.w3.org/2000/svg" version="1.1">
 <metadata>
  <rdf:RDF xmlns:dc="http://purl.org/dc/elements/1.1/" xmlns:cc="http://creativecommons.org/ns#" xmlns:rdf="http://www.w3.org/1999/02/22-rdf-syntax-ns#">
   <cc:Work>
    <dc:type rdf:resource="http://purl.org/dc/dcmitype/StillImage"/>
    <dc:date>2024-06-09T19:44:40.297665</dc:date>
    <dc:format>image/svg+xml</dc:format>
    <dc:creator>
     <cc:Agent>
      <dc:title>Matplotlib v3.8.2, https://matplotlib.org/</dc:title>
     </cc:Agent>
    </dc:creator>
   </cc:Work>
  </rdf:RDF>
 </metadata>
 <defs>
  <style type="text/css">*{stroke-linejoin: round; stroke-linecap: butt}</style>
 </defs>
 <g id="figure_1">
  <g id="patch_1">
   <path d="M 0 345.6 
L 460.8 345.6 
L 460.8 0 
L 0 0 
z
" style="fill: #ffffff"/>
  </g>
  <g id="axes_1">
   <g id="patch_2">
    <path d="M 186.264 307.584 
L 286.056 307.584 
L 286.056 41.472 
L 186.264 41.472 
z
" style="fill: #ffffff"/>
   </g>
   <g id="patch_3">
    <path d="M 186.264 157.896 
C 195.085716 157.896 203.547305 154.391095 209.7852 148.1532 
C 216.023095 141.915305 219.528 133.453716 219.528 124.632 
C 219.528 115.810284 216.023095 107.348695 209.7852 101.1108 
C 203.547305 94.872905 195.085716 91.368 186.264 91.368 
C 177.442284 91.368 168.980695 94.872905 162.7428 101.1108 
C 156.504905 107.348695 153 115.810284 153 124.632 
C 153 133.453716 156.504905 141.915305 162.7428 148.1532 
C 168.980695 154.391095 177.442284 157.896 186.264 157.896 
L 186.264 157.896 
z
" clip-path="url(#p5c8e9cfdb5)" style="fill: none; stroke: #222222; stroke-linejoin: miter"/>
   </g>
   <g id="patch_4">
    <path d="M 186.264 161.2224 
C 195.967888 161.2224 205.275635 157.367005 212.13732 150.50532 
C 218.999005 143.643635 222.8544 134.335888 222.8544 124.632 
C 222.8544 114.928112 218.999005 105.620365 212.13732 98.75868 
C 205.275635 91.896995 195.967888 88.0416 186.264 88.0416 
C 176.560112 88.0416 167.252365 91.896995 160.39068 98.75868 
C 153.528995 105.620365 149.6736 114.928112 149.6736 124.632 
C 149.6736 134.335888 153.528995 143.643635 160.39068 150.50532 
C 167.252365 157.367005 176.560112 161.2224 186.264 161.2224 
L 186.264 161.2224 
z
" clip-path="url(#p5c8e9cfdb5)" style="fill: none; stroke-dasharray: 3.7,1.6; stroke-dashoffset: 0; stroke: #666666; stroke-linejoin: miter"/>
   </g>
   <g id="matplotlib.axis_1">
    <g id="xtick_1">
     <g id="line2d_1">
      <defs>
       <path id="md907921af3" d="M 0 0 
L 0 3.5 
" style="stroke: #000000; stroke-width: 0.8"/>
      </defs>
      <g>
       <use xlink:href="#md907921af3" x="186.264" y="307.584" style="stroke: #000000; stroke-width: 0.8"/>
      </g>
     </g>
     <g id="text_1">
      <!-- 0 -->
      <g transform="translate(183.08275 322.182437) scale(0.1 -0.1)">
       <defs>
        <path id="DejaVuSans-30" d="M 2034 4250 
Q 1547 4250 1301 3770 
Q 1056 3291 1056 2328 
Q 1056 1369 1301 889 
Q 1547 409 2034 409 
Q 2525 409 2770 889 
Q 3016 1369 3016 2328 
Q 3016 3291 2770 3770 
Q 2525 4250 2034 4250 
z
M 2034 4750 
Q 2819 4750 3233 4129 
Q 3647 3509 3647 2328 
Q 3647 1150 3233 529 
Q 2819 -91 2034 -91 
Q 1250 -91 836 529 
Q 422 1150 422 2328 
Q 422 3509 836 4129 
Q 1250 4750 2034 4750 
z
" transform="scale(0.015625)"/>
       </defs>
       <use xlink:href="#DejaVuSans-30"/>
      </g>
     </g>
    </g>
    <g id="xtick_2">
     <g id="line2d_2">
      <g>
       <use xlink:href="#md907921af3" x="219.528" y="307.584" style="stroke: #000000; stroke-width: 0.8"/>
      </g>
     </g>
     <g id="text_2">
      <!-- 1 -->
      <g transform="translate(216.34675 322.182437) scale(0.1 -0.1)">
       <defs>
        <path id="DejaVuSans-31" d="M 794 531 
L 1825 531 
L 1825 4091 
L 703 3866 
L 703 4441 
L 1819 4666 
L 2450 4666 
L 2450 531 
L 3481 531 
L 3481 0 
L 794 0 
L 794 531 
z
" transform="scale(0.015625)"/>
       </defs>
       <use xlink:href="#DejaVuSans-31"/>
      </g>
     </g>
    </g>
    <g id="xtick_3">
     <g id="line2d_3">
      <g>
       <use xlink:href="#md907921af3" x="252.792" y="307.584" style="stroke: #000000; stroke-width: 0.8"/>
      </g>
     </g>
     <g id="text_3">
      <!-- 2 -->
      <g transform="translate(249.61075 322.182437) scale(0.1 -0.1)">
       <defs>
        <path id="DejaVuSans-32" d="M 1228 531 
L 3431 531 
L 3431 0 
L 469 0 
L 469 531 
Q 828 903 1448 1529 
Q 2069 2156 2228 2338 
Q 2531 2678 2651 2914 
Q 2772 3150 2772 3378 
Q 2772 3750 2511 3984 
Q 2250 4219 1831 4219 
Q 1534 4219 1204 4116 
Q 875 4013 500 3803 
L 500 4441 
Q 881 4594 1212 4672 
Q 1544 4750 1819 4750 
Q 2544 4750 2975 4387 
Q 3406 4025 3406 3419 
Q 3406 3131 3298 2873 
Q 3191 2616 2906 2266 
Q 2828 2175 2409 1742 
Q 1991 1309 1228 531 
z
" transform="scale(0.015625)"/>
       </defs>
       <use xlink:href="#DejaVuSans-32"/>
      </g>
     </g>
    </g>
    <g id="xtick_4">
     <g id="line2d_4">
      <g>
       <use xlink:href="#md907921af3" x="286.056" y="307.584" style="stroke: #000000; stroke-width: 0.8"/>
      </g>
     </g>
     <g id="text_4">
      <!-- 3 -->
      <g transform="translate(282.87475 322.182437) scale(0.1 -0.1)">
       <defs>
        <path id="DejaVuSans-33" d="M 2597 2516 
Q 3050 2419 3304 2112 
Q 3559 1806 3559 1356 
Q 3559 666 3084 287 
Q 2609 -91 1734 -91 
Q 1441 -91 1130 -33 
Q 819 25 488 141 
L 488 750 
Q 750 597 1062 519 
Q 1375 441 1716 441 
Q 2309 441 2620 675 
Q 2931 909 2931 1356 
Q 2931 1769 2642 2001 
Q 2353 2234 1838 2234 
L 1294 2234 
L 1294 2753 
L 1863 2753 
Q 2328 2753 2575 2939 
Q 2822 3125 2822 3475 
Q 2822 3834 2567 4026 
Q 2313 4219 1838 4219 
Q 1578 4219 1281 4162 
Q 984 4106 628 3988 
L 628 4550 
Q 988 4650 1302 4700 
Q 1616 4750 1894 4750 
Q 2613 4750 3031 4423 
Q 3450 4097 3450 3541 
Q 3450 3153 3228 2886 
Q 3006 2619 2597 2516 
z
" transform="scale(0.015625)"/>
       </defs>
       <use xlink:href="#DejaVuSans-33"/>
      </g>
     </g>
    </g>
   </g>
   <g id="matplotlib.axis_2">
    <g id="ytick_1">
     <g id="line2d_5">
      <defs>
       <path id="m7a617cf77d" d="M 0 0 
L -3.5 0 
" style="stroke: #000000; stroke-width: 0.8"/>
      </defs>
      <g>
       <use xlink:href="#m7a617cf77d" x="186.264" y="290.952" style="stroke: #000000; stroke-width: 0.8"/>
      </g>
     </g>
     <g id="text_5">
      <!-- −5 -->
      <g transform="translate(164.521813 294.751219) scale(0.1 -0.1)">
       <defs>
        <path id="DejaVuSans-2212" d="M 678 2272 
L 4684 2272 
L 4684 1741 
L 678 1741 
L 678 2272 
z
" transform="scale(0.015625)"/>
        <path id="DejaVuSans-35" d="M 691 4666 
L 3169 4666 
L 3169 4134 
L 1269 4134 
L 1269 2991 
Q 1406 3038 1543 3061 
Q 1681 3084 1819 3084 
Q 2600 3084 3056 2656 
Q 3513 2228 3513 1497 
Q 3513 744 3044 326 
Q 2575 -91 1722 -91 
Q 1428 -91 1123 -41 
Q 819 9 494 109 
L 494 744 
Q 775 591 1075 516 
Q 1375 441 1709 441 
Q 2250 441 2565 725 
Q 2881 1009 2881 1497 
Q 2881 1984 2565 2268 
Q 2250 2553 1709 2553 
Q 1456 2553 1204 2497 
Q 953 2441 691 2322 
L 691 4666 
z
" transform="scale(0.015625)"/>
       </defs>
       <use xlink:href="#DejaVuSans-2212"/>
       <use xlink:href="#DejaVuSans-35" x="83.789062"/>
      </g>
     </g>
    </g>
    <g id="ytick_2">
     <g id="line2d_6">
      <g>
       <use xlink:href="#m7a617cf77d" x="186.264" y="257.688" style="stroke: #000000; stroke-width: 0.8"/>
      </g>
     </g>
     <g id="text_6">
      <!-- −4 -->
      <g transform="translate(164.521813 261.487219) scale(0.1 -0.1)">
       <defs>
        <path id="DejaVuSans-34" d="M 2419 4116 
L 825 1625 
L 2419 1625 
L 2419 4116 
z
M 2253 4666 
L 3047 4666 
L 3047 1625 
L 3713 1625 
L 3713 1100 
L 3047 1100 
L 3047 0 
L 2419 0 
L 2419 1100 
L 313 1100 
L 313 1709 
L 2253 4666 
z
" transform="scale(0.015625)"/>
       </defs>
       <use xlink:href="#DejaVuSans-2212"/>
       <use xlink:href="#DejaVuSans-34" x="83.789062"/>
      </g>
     </g>
    </g>
    <g id="ytick_3">
     <g id="line2d_7">
      <g>
       <use xlink:href="#m7a617cf77d" x="186.264" y="224.424" style="stroke: #000000; stroke-width: 0.8"/>
      </g>
     </g>
     <g id="text_7">
      <!-- −3 -->
      <g transform="translate(164.521813 228.223219) scale(0.1 -0.1)">
       <use xlink:href="#DejaVuSans-2212"/>
       <use xlink:href="#DejaVuSans-33" x="83.789062"/>
      </g>
     </g>
    </g>
    <g id="ytick_4">
     <g id="line2d_8">
      <g>
       <use xlink:href="#m7a617cf77d" x="186.264" y="191.16" style="stroke: #000000; stroke-width: 0.8"/>
      </g>
     </g>
     <g id="text_8">
      <!-- −2 -->
      <g transform="translate(164.521813 194.959219) scale(0.1 -0.1)">
       <use xlink:href="#DejaVuSans-2212"/>
       <use xlink:href="#DejaVuSans-32" x="83.789062"/>
      </g>
     </g>
    </g>
    <g id="ytick_5">
     <g id="line2d_9">
      <g>
       <use xlink:href="#m7a617cf77d" x="186.264" y="157.896" style="stroke: #000000; stroke-width: 0.8"/>
      </g>
     </g>
     <g id="text_9">
      <!-- −1 -->
      <g transform="translate(164.521813 161.695219) scale(0.1 -0.1)">
       <use xlink:href="#DejaVuSans-2212"/>
       <use xlink:href="#DejaVuSans-31" x="83.789062"/>
      </g>
     </g>
    </g>
    <g id="ytick_6">
     <g id="line2d_10">
      <g>
       <use xlink:href="#m7a617cf77d" x="186.264" y="124.632" style="stroke: #000000; stroke-width: 0.8"/>
      </g>
     </g>
     <g id="text_10">
      <!-- 0 -->
      <g transform="translate(172.9015 128.431219) scale(0.1 -0.1)">
       <use xlink:href="#DejaVuSans-30"/>
      </g>
     </g>
    </g>
    <g id="ytick_7">
     <g id="line2d_11">
      <g>
       <use xlink:href="#m7a617cf77d" x="186.264" y="91.368" style="stroke: #000000; stroke-width: 0.8"/>
      </g>
     </g>
     <g id="text_11">
      <!-- 1 -->
      <g transform="translate(172.9015 95.167219) scale(0.1 -0.1)">
       <use xlink:href="#DejaVuSans-31"/>
      </g>
     </g>
    </g>
    <g id="ytick_8">
     <g id="line2d_12">
      <g>
       <use xlink:href="#m7a617cf77d" x="186.264" y="58.104" style="stroke: #000000; stroke-width: 0.8"/>
      </g>
     </g>
     <g id="text_12">
      <!-- 2 -->
      <g transform="translate(172.9015 61.903219) scale(0.1 -0.1)">
       <use xlink:href="#DejaVuSans-32"/>
      </g>
     </g>
    </g>
   </g>
   <g id="line2d_13">
    <path d="M 189.626962 290.756618 
L 189.737672 290.27557 
L 189.749677 289.629769 
L 189.880873 289.485159 
L 189.789821 284.142273 
L 189.808187 282.825513 
L 189.819213 282.088651 
L 189.887811 281.575801 
L 189.898672 281.241821 
L 190.062776 279.800961 
L 189.939949 278.549361 
L 189.857345 276.690661 
L 189.749266 276.234516 
L 189.686753 274.976381 
L 189.484646 273.769399 
L 189.746109 272.927454 
L 189.32538 271.14792 
L 189.45318 270.829468 
L 189.439488 270.488351 
L 189.229904 270.213296 
L 189.222785 269.502129 
L 189.134677 269.318643 
L 189.157459 268.722742 
L 189.045613 268.243265 
L 189.038476 267.41347 
L 189.32491 265.001124 
L 189.190619 264.089595 
L 189.193943 263.645076 
L 189.255266 262.696018 
L 189.378445 261.515351 
L 189.660509 260.831181 
L 189.464272 260.214326 
L 189.606129 259.773995 
L 189.556157 259.388465 
L 189.700058 259.226789 
L 189.422942 257.522319 
L 189.412105 256.126601 
L 189.566222 255.93953 
L 189.821917 254.72668 
L 189.964552 254.535041 
L 189.832362 253.588125 
L 189.770568 252.883635 
L 189.814877 252.721618 
L 189.537348 252.322693 
L 189.551707 251.970552 
L 189.494726 251.369979 
L 189.625027 251.045469 
L 189.657592 250.804207 
L 189.496756 250.633418 
L 189.308201 249.708581 
L 189.336593 249.500129 
L 189.414742 248.820035 
L 189.313721 248.643124 
L 189.293371 248.203451 
L 189.228214 248.01017 
L 189.372167 247.788688 
L 189.133433 246.886216 
L 189.180406 246.106741 
L 189.059574 245.810662 
L 189.187457 245.638018 
L 189.206465 244.942562 
L 189.305323 244.399503 
L 189.098198 243.887177 
L 189.257704 243.719283 
L 189.262258 242.902121 
L 189.72116 240.733876 
L 189.606257 240.279444 
L 189.679978 239.104265 
L 189.822581 238.963113 
L 189.820969 238.523757 
L 189.688371 237.820847 
L 189.593183 237.734092 
L 189.544367 237.135447 
L 189.544508 236.302995 
L 189.282931 235.869183 
L 189.18649 235.009259 
L 189.317365 234.397599 
L 189.272737 234.259422 
L 189.402681 234.044474 
L 189.290212 232.901787 
L 189.121824 232.0766 
L 189.027045 231.860931 
L 189.097211 231.49852 
L 189.161319 231.12069 
L 189.050329 230.018165 
L 188.984478 229.656372 
L 188.916874 228.803379 
L 188.783325 228.140487 
L 188.909268 228.027696 
L 188.781877 226.91988 
L 188.591886 226.483316 
L 188.651633 226.39898 
L 188.656714 225.348679 
L 188.750801 224.958009 
L 188.725658 224.394934 
L 188.618098 222.852449 
L 188.911131 220.813968 
L 188.867431 220.777938 
L 188.903345 220.572793 
L 189.03163 220.385572 
L 189.05999 219.856051 
L 189.153829 219.263981 
L 189.11277 218.876151 
L 189.207794 218.194463 
L 189.345393 217.905783 
L 189.602277 217.282014 
L 189.802692 217.088503 
L 189.648935 216.730334 
L 189.323757 215.667328 
L 189.228183 215.286358 
L 188.797962 212.887939 
L 188.926992 212.605786 
L 189.043025 212.374335 
L 188.805246 211.929959 
L 188.872814 211.860287 
L 188.87066 211.19412 
L 188.870959 210.934657 
L 188.845204 210.578725 
L 188.921637 210.268942 
L 188.831653 210.14193 
L 188.834301 209.037176 
L 188.866568 208.537126 
L 188.811634 208.007272 
L 188.833548 207.674934 
L 189.112785 202.028125 
L 189.01667 201.879392 
L 189.139526 201.790916 
L 189.089067 201.612046 
L 189.120043 201.193754 
L 189.12034 200.666018 
L 189.203864 200.65313 
L 189.027787 200.183749 
L 188.963914 199.590179 
L 189.151301 199.223612 
L 189.117826 199.039174 
L 188.95369 198.700792 
L 189.023237 198.682179 
L 189.000147 198.211203 
L 188.904562 198.107326 
L 188.965566 197.887906 
L 189.162919 197.73742 
L 189.100141 196.673279 
L 189.167665 196.162998 
L 189.230714 195.898166 
L 189.309166 195.873169 
L 189.297872 195.274198 
L 189.342662 195.177491 
L 189.268989 194.737159 
L 189.58518 194.126388 
L 189.556195 193.865672 
L 189.459196 193.594702 
L 189.471764 193.306546 
L 189.658348 190.91555 
L 189.581034 190.411598 
L 189.792364 190.490521 
L 189.673558 190.025557 
L 189.725118 189.90177 
L 189.629963 189.995511 
L 189.484382 189.891721 
L 189.634137 189.050209 
L 189.649118 188.887244 
L 189.65074 187.708266 
L 189.596567 187.507645 
L 189.531895 187.262153 
L 189.652376 187.09502 
L 189.523785 187.038216 
L 189.371357 186.296888 
L 189.24014 186.342415 
L 189.260309 186.277359 
L 189.194874 186.114009 
L 188.965869 185.799713 
L 189.171408 185.043817 
L 189.250046 184.950472 
L 189.175045 184.841623 
L 189.265025 184.568705 
L 189.174168 184.565374 
L 189.182302 184.485191 
L 189.145025 184.41086 
L 189.158317 184.45614 
L 189.231988 184.292771 
L 189.147334 184.205996 
L 189.298819 183.975862 
L 189.384134 183.49868 
L 189.120954 183.323283 
L 189.09865 182.952001 
L 189.012209 182.811052 
L 189.048709 182.740405 
L 188.855935 182.317283 
L 188.767703 181.901402 
L 188.765725 181.715323 
L 188.821308 181.630166 
L 188.859848 181.671085 
L 188.945781 181.659791 
L 188.891924 181.57663 
L 188.943136 181.537571 
L 188.918981 181.26457 
L 189.10677 181.170392 
L 189.022216 181.077036 
L 189.022658 180.745181 
L 189.019618 180.078101 
L 188.92926 179.881054 
L 188.961797 179.883263 
L 189.13439 179.53381 
L 189.224763 179.220422 
L 189.330812 179.128029 
L 189.225896 179.040544 
L 189.369319 178.737463 
L 189.333903 178.614944 
L 189.696731 178.308242 
L 189.633562 178.266955 
L 189.656735 177.916094 
L 189.596479 177.93518 
L 189.64843 177.970075 
L 189.553358 177.452383 
L 189.523199 177.337411 
L 189.660002 177.096792 
L 189.617231 176.627434 
L 189.644929 176.530337 
L 189.956303 175.174392 
L 190.073049 174.934915 
L 190.182248 174.833762 
L 190.075641 174.800195 
L 190.015464 174.804641 
L 190.107669 174.717208 
L 190.278099 174.292318 
L 190.319089 174.369738 
L 190.391692 174.24003 
L 190.375256 174.244357 
L 190.352167 174.038601 
L 190.521456 173.358733 
L 190.579615 173.292325 
L 190.429618 172.773225 
L 190.790897 172.606088 
L 190.604759 172.634306 
L 190.399059 172.520222 
L 190.438515 172.523141 
L 190.596877 172.446359 
L 190.740353 172.513422 
L 190.738516 172.486742 
L 190.673283 172.625955 
L 190.682999 172.577224 
L 190.653088 172.381537 
L 190.440612 172.312619 
L 190.545863 172.339924 
L 190.492494 172.243292 
L 190.494818 172.084296 
L 190.535322 171.541293 
L 190.443096 171.188046 
L 190.522391 171.27507 
L 190.670938 171.355444 
L 190.638165 171.266191 
L 190.70354 171.203689 
L 190.670687 170.691422 
L 190.621313 170.712886 
L 190.864542 170.503165 
L 190.952466 170.600488 
L 190.914878 170.462306 
L 190.966584 170.380948 
L 190.989696 170.435441 
L 190.784058 170.136261 
L 190.643522 169.91483 
L 190.837349 170.00116 
L 190.877311 169.948008 
L 190.78122 169.974232 
L 190.691223 169.788049 
L 190.771601 169.753875 
L 190.708107 169.715499 
L 190.666969 169.66036 
L 190.770393 169.677395 
L 190.801368 169.564846 
L 191.063825 169.601791 
L 190.954307 169.642888 
L 190.958225 169.739707 
L 191.045435 169.4712 
L 191.117158 169.470058 
L 191.147746 169.263683 
L 191.292982 168.911316 
L 191.337412 169.058657 
L 191.547505 169.03161 
L 191.621566 169.134182 
L 191.602957 168.959523 
L 191.658585 169.039901 
L 191.671811 168.708423 
L 191.513175 168.741907 
L 191.549754 168.552901 
L 191.649063 168.546969 
L 191.542474 168.51383 
L 191.615643 168.495974 
L 191.328565 168.129145 
L 191.378364 168.20254 
L 191.473232 167.619923 
L 191.383125 167.414164 
L 191.359299 167.524849 
L 191.274635 167.545438 
L 191.283714 167.149126 
L 191.208458 167.195818 
L 191.413266 167.011737 
L 191.546523 166.825111 
L 191.559452 166.812894 
L 191.875656 166.681382 
L 191.962374 166.673197 
L 191.794027 166.726706 
L 191.817234 166.656317 
L 191.76263 166.489878 
L 191.797638 166.541313 
L 191.874627 166.174591 
L 191.850128 165.946431 
L 192.033332 165.753107 
L 191.951602 165.728529 
L 192.110258 165.618316 
L 192.021029 165.649206 
L 192.04997 165.410157 
L 192.583324 165.437673 
L 192.537035 165.398614 
L 192.649325 165.620691 
L 192.656727 165.575513 
L 192.795208 165.593861 
L 192.881046 165.435793 
L 193.269564 165.336076 
L 193.261794 165.354824 
L 193.376395 165.422017 
L 193.217465 165.545281 
L 193.468184 165.260519 
L 193.330024 164.984406 
L 193.442632 164.889915 
L 193.388141 165.002247 
L 193.562234 164.900443 
L 193.510025 164.86583 
L 193.449751 164.696651 
L 193.522511 164.301077 
L 193.341005 164.329179 
L 193.199485 164.377045 
L 193.398499 164.217883 
L 193.280964 164.321367 
L 193.413253 164.157534 
L 193.505971 164.244261 
L 193.497175 164.123043 
L 194.015872 163.876115 
L 193.485293 164.23773 
L 194.02172 163.943542 
L 193.855921 164.119304 
L 193.862488 164.090333 
L 193.8187 163.953698 
L 193.919077 163.759426 
L 193.816873 163.809651 
L 193.894893 163.729515 
L 193.851556 163.873081 
L 193.828305 163.782246 
L 194.015072 163.430621 
L 194.190994 163.557001 
L 194.179407 163.418887 
L 194.151488 163.153798 
L 194.248699 162.995408 
L 194.124606 163.142655 
L 194.11076 162.962072 
L 194.382926 163.036545 
L 194.120387 162.883755 
L 194.369862 162.981434 
L 194.514334 162.903622 
L 194.616892 163.021279 
L 194.404045 162.647221 
L 194.388531 162.658554 
L 194.597862 162.701027 
L 194.590216 162.932073 
L 194.665297 162.798444 
L 194.891595 162.637033 
L 194.866243 162.349964 
L 194.914645 162.388714 
L 194.992772 162.403925 
L 194.864221 162.371547 
L 194.87122 162.415603 
L 195.130575 162.688389 
L 195.694566 162.675323 
L 195.679154 162.636391 
L 195.863476 162.459059 
L 195.837617 162.491183 
L 195.942893 162.502801 
L 195.881931 162.343139 
L 195.947718 162.458917 
L 196.180752 162.288508 
L 196.191504 162.327127 
L 196.303774 162.14861 
L 196.265095 162.181352 
L 196.577246 161.87603 
L 196.97269 161.95665 
L 196.913327 161.852333 
L 197.289859 161.533152 
L 197.345994 161.647152 
L 197.531692 161.589666 
L 197.491243 161.493843 
L 197.441431 161.449688 
L 197.291216 161.286188 
L 197.373856 161.232901 
L 197.633472 161.251729 
L 197.633359 161.284181 
L 197.724017 161.004717 
L 197.882959 160.950895 
L 197.936533 160.836613 
L 198.218254 160.828143 
L 198.273901 161.055347 
L 198.344527 160.98978 
L 198.403446 160.978978 
L 198.381358 161.06239 
L 198.649518 161.12762 
L 198.507941 161.091294 
L 198.54832 161.257324 
L 198.482342 161.055776 
L 198.60532 161.047056 
L 198.785679 160.936549 
L 198.857497 160.821109 
L 198.738224 160.816679 
L 198.781707 160.71603 
L 198.753285 160.834083 
L 198.8406 160.775764 
L 199.073551 160.689529 
L 198.690899 160.729028 
L 198.693964 160.714813 
L 198.441333 160.438037 
L 198.381009 160.556229 
L 198.502793 160.507273 
L 198.73415 160.505857 
L 198.658309 160.285556 
L 198.601608 160.323545 
L 198.681593 160.279735 
L 198.614103 160.213589 
L 198.451177 160.111409 
L 198.528959 160.110136 
L 198.612279 159.990378 
L 198.623413 159.663726 
L 198.649351 159.575131 
L 198.697785 159.704403 
L 198.707796 159.666799 
L 198.968066 159.378143 
L 198.807755 159.40299 
L 198.816785 159.661454 
L 198.941877 159.531357 
L 199.141181 159.409922 
L 198.967885 159.42748 
L 199.044194 159.189292 
L 199.005987 159.146843 
L 199.098914 159.191818 
L 199.198055 159.122995 
L 199.324563 159.268572 
L 199.281336 159.027798 
L 199.38607 158.952825 
L 199.417536 158.88552 
L 199.433848 159.037323 
L 199.54029 158.892674 
L 199.426813 159.068971 
L 199.417862 158.923655 
L 199.374465 158.864988 
L 199.277484 158.928021 
L 199.348332 158.979555 
L 199.47152 159.03647 
L 199.416188 158.908952 
L 199.739163 158.832844 
L 199.724362 159.017203 
L 199.778274 158.772737 
L 199.77997 158.774625 
L 200.100638 158.576998 
L 200.11782 158.5557 
L 200.244192 158.672266 
L 200.273172 158.563258 
L 200.336924 158.605604 
L 200.651588 158.571593 
L 200.71286 158.48108 
L 200.739777 158.340348 
L 200.806819 158.474208 
L 200.947343 158.5168 
L 200.796669 158.453746 
L 200.940078 158.502782 
L 201.041069 158.339928 
L 201.212894 158.407324 
L 201.155089 158.30832 
L 201.447532 158.32158 
L 201.374647 158.16084 
L 201.357226 157.944041 
L 201.264214 158.037148 
L 201.168362 158.003783 
L 201.692742 158.110467 
L 201.616136 158.0989 
L 201.648908 157.989246 
L 201.557148 158.115741 
L 201.666152 158.078705 
L 202.294855 158.207857 
L 202.481741 158.031092 
L 202.769752 157.904252 
L 202.877928 157.937855 
L 202.993187 158.170856 
L 202.904813 157.856136 
L 203.020081 157.854552 
L 202.984828 157.75582 
L 202.917433 157.589238 
L 203.209937 157.295711 
L 203.179679 157.256686 
L 203.179247 157.369441 
L 203.105582 157.354585 
L 203.110985 157.057923 
L 203.225378 157.019957 
L 203.352564 157.113108 
L 203.395439 157.045835 
L 203.207492 156.922851 
L 203.131678 157.030725 
L 203.385996 156.753799 
L 203.380781 156.780878 
L 203.474717 156.763004 
L 203.565453 156.865771 
L 203.399423 156.76997 
L 203.456129 156.882541 
L 203.42394 156.986009 
L 203.553487 156.932076 
L 203.55909 156.977331 
L 203.468682 157.157635 
L 203.519209 157.170469 
L 203.519623 157.191178 
L 203.553438 157.104844 
L 203.46545 157.12996 
L 203.394198 157.11579 
L 203.734378 157.083248 
L 203.901326 156.982347 
L 203.802535 157.075662 
L 203.654771 156.89706 
L 203.649757 156.91335 
L 203.560459 157.009439 
L 203.661984 156.779132 
L 203.654983 156.704081 
L 203.812672 156.616204 
L 203.818795 156.724062 
L 204.096284 156.920249 
L 204.302948 156.83655 
L 204.292812 156.84875 
L 204.137687 156.767154 
L 204.40643 156.752778 
L 204.459927 156.654288 
L 204.516386 156.750234 
L 204.629358 156.600259 
L 204.583732 156.593758 
L 204.508251 156.43521 
L 204.694283 156.688334 
L 204.671236 156.60023 
L 204.930477 156.591559 
L 205.223276 156.201788 
L 205.273329 156.3077 
L 205.120395 155.854017 
L 205.116255 155.86995 
L 205.251637 155.917298 
L 205.196514 155.81127 
L 205.320973 155.577763 
L 205.180684 155.8181 
L 205.363149 155.640307 
L 205.612171 155.757063 
L 205.83606 155.832893 
L 205.622235 155.65299 
L 205.645226 155.494997 
L 205.682937 155.731514 
L 205.742757 155.591915 
L 206.026426 155.790626 
L 206.023495 155.789334 
L 206.181698 155.774414 
L 206.10311 155.678602 
L 206.21124 155.612293 
L 206.039508 155.637799 
L 206.06289 155.617175 
L 206.182608 155.479511 
L 206.298851 155.616659 
L 206.290534 155.590958 
L 206.406967 155.299534 
L 206.602157 155.425133 
L 206.630391 155.267347 
L 206.732501 155.296675 
L 206.818667 155.18847 
L 206.995338 155.12341 
L 207.057767 155.100853 
L 207.050144 154.898698 
L 207.171098 154.912963 
L 207.409984 154.672721 
L 207.330202 154.776505 
L 207.475502 154.940901 
L 207.438013 154.884934 
L 207.437547 155.066362 
L 207.63491 154.978739 
L 207.961092 154.600842 
L 208.171265 154.394659 
L 208.045229 154.308142 
L 208.221806 153.871673 
L 208.455612 153.815828 
L 208.410752 153.820115 
L 208.46713 153.626121 
L 208.494433 153.698463 
L 208.603547 153.766814 
L 208.507569 153.792736 
L 208.60683 153.836318 
L 208.67192 153.806512 
L 208.742807 153.725501 
L 208.637007 153.943482 
L 208.738088 153.973593 
L 208.61139 153.873757 
L 208.620421 153.752033 
L 208.50717 153.826747 
L 208.500146 153.851783 
L 208.650985 153.688258 
L 208.707307 153.557365 
L 208.744984 153.577815 
L 208.977753 153.486141 
L 209.108605 153.159782 
L 209.057852 153.154572 
L 209.217921 153.235945 
L 209.199654 153.100855 
L 209.199525 153.083619 
L 209.183618 153.129519 
L 209.511594 153.097187 
L 209.714531 153.003656 
L 209.676138 153.00541 
L 209.739122 152.917797 
L 209.638621 152.887153 
L 209.884072 152.471498 
L 209.790743 152.550599 
L 209.971945 152.665788 
L 209.959692 152.809626 
L 209.824937 152.745091 
L 209.942246 152.697326 
L 210.086445 152.655482 
L 210.01404 152.587404 
L 210.171887 152.459015 
L 210.097576 152.441587 
L 210.012041 152.318817 
L 210.18859 152.381353 
L 210.151014 152.336544 
L 210.289082 152.375903 
L 210.299967 152.180622 
L 210.196774 152.062414 
L 210.274914 152.031212 
L 210.174681 151.917267 
L 210.418221 151.778741 
L 210.516487 151.734457 
L 210.641176 151.582492 
L 210.772091 151.50626 
L 210.981915 151.320454 
L 210.886379 151.16426 
L 210.808557 151.207667 
L 210.853637 151.093854 
L 210.933006 150.948139 
L 211.407448 150.917637 
L 211.423164 150.798222 
L 211.477651 150.893944 
L 211.604388 150.771907 
L 211.528302 150.757582 
L 211.42777 150.656977 
L 211.538035 150.779241 
L 211.503223 150.770172 
L 211.667842 150.755729 
L 211.700505 150.632483 
L 211.904617 150.718478 
L 211.976628 150.772936 
L 211.839779 150.618257 
L 211.96725 150.463004 
L 211.816901 150.479655 
L 211.762827 150.393807 
L 212.039838 150.300898 
L 212.126714 149.831714 
L 212.217723 149.726441 
L 212.223804 149.775691 
L 212.471202 149.901858 
L 212.466176 149.876674 
L 212.559126 149.926292 
L 212.417179 149.786261 
L 212.563551 149.772686 
L 212.564999 149.78869 
L 212.667143 149.832539 
L 212.639768 149.758293 
L 213.056656 149.466049 
L 212.950396 149.467619 
L 213.169872 149.537303 
L 213.144672 149.57539 
L 213.089743 149.589263 
L 213.097967 149.49549 
L 213.162839 149.36196 
L 213.01112 149.388526 
L 212.996761 149.231538 
L 213.288482 149.254912 
L 213.265562 149.204146 
L 213.387983 149.206475 
L 213.325784 149.098631 
L 213.504161 148.928268 
L 213.230847 149.062278 
L 213.473217 149.004701 
L 213.484988 148.676354 
L 213.390202 148.537062 
L 213.671476 148.528215 
L 213.360787 148.491097 
L 213.574372 148.462303 
L 213.686921 148.029107 
L 213.777397 147.854083 
L 213.822775 147.675786 
L 213.778063 147.581747 
L 214.517105 147.38011 
L 214.309949 147.289865 
L 214.406259 147.20095 
L 214.441661 147.092955 
L 214.358743 146.782541 
L 214.420324 146.83077 
L 214.466961 146.838312 
L 214.476519 146.795853 
L 214.538337 146.391428 
L 214.501104 146.429246 
L 214.444697 146.335351 
L 214.472998 146.397346 
L 214.504598 146.208059 
L 214.66491 146.1353 
L 214.71859 145.996181 
L 214.800946 145.990175 
L 214.816229 145.789337 
L 214.819267 145.814392 
L 214.97508 145.728409 
L 215.067925 145.536845 
L 214.683894 145.426645 
L 214.666328 145.392944 
L 214.51533 145.458265 
L 214.663229 145.300479 
L 214.560623 145.214845 
L 214.586392 145.310143 
L 214.353842 145.312702 
L 214.483903 144.824927 
L 214.626192 144.801228 
L 214.840362 144.785934 
L 214.675117 144.461302 
L 214.818469 144.294298 
L 214.714868 144.329063 
L 214.570362 144.26595 
L 214.720909 144.431425 
L 214.772691 144.564763 
L 214.804446 144.48099 
L 215.027132 143.808014 
L 215.052849 143.902483 
L 215.193311 143.994067 
L 215.068958 143.798854 
L 214.914715 143.6117 
L 215.024392 143.863036 
L 214.982533 143.571104 
L 214.905208 143.321468 
L 214.80079 143.432629 
L 214.950096 143.358536 
L 214.860542 143.288605 
L 214.66352 143.256039 
L 214.739158 143.086287 
L 214.779847 143.143452 
L 214.979561 143.115122 
L 214.878214 143.163267 
L 214.902175 142.965504 
L 214.794909 143.020345 
L 214.629852 143.006328 
L 214.778104 143.213013 
L 214.876655 143.069502 
L 214.874451 142.872952 
L 214.740972 142.938135 
L 214.699613 142.985773 
L 214.663623 142.896865 
L 214.614649 142.532586 
L 214.684465 142.48175 
L 214.694276 142.501406 
L 214.560454 142.353101 
L 214.628439 142.263656 
L 214.561099 142.287248 
L 214.465339 142.012921 
L 214.637311 142.045497 
L 214.562982 142.020239 
L 214.522268 141.832058 
L 214.613065 142.044254 
L 214.660076 141.978708 
L 214.945893 142.11476 
L 214.889244 141.989349 
L 214.852623 141.938299 
L 214.818922 142.031239 
L 214.830562 141.684419 
L 214.902008 142.182429 
L 215.041461 142.190665 
L 214.865655 142.011874 
L 215.070669 142.20549 
L 214.897335 142.044285 
L 214.742604 142.000854 
L 214.831565 141.943973 
L 214.769453 141.929936 
L 214.880728 141.88907 
L 214.933448 141.780716 
L 214.830617 142.056411 
L 214.821913 141.979445 
L 214.709146 141.884506 
L 214.804115 141.758435 
L 214.867557 141.945089 
L 214.82763 141.874975 
L 214.796896 141.949751 
L 214.595084 142.089915 
L 214.533339 142.16932 
L 214.306815 142.102227 
L 214.517196 142.116487 
L 214.681825 141.750526 
L 214.735046 141.728439 
L 214.583854 141.55971 
L 214.685843 141.541808 
L 214.662325 141.549025 
L 214.827263 141.413949 
L 214.909743 141.449798 
L 214.778455 141.486878 
L 214.847901 141.509483 
L 214.797776 141.601749 
L 214.800738 141.521922 
L 214.706267 141.403756 
L 214.806446 141.460215 
L 214.868917 141.323104 
L 214.862626 141.317275 
L 215.074147 141.423971 
L 214.90594 141.496889 
L 214.916563 141.540325 
L 214.931943 141.475957 
L 215.051144 141.48622 
L 214.983786 141.538101 
L 214.720985 141.763644 
L 214.644536 141.692102 
L 214.732692 141.781351 
L 214.740433 141.682563 
L 214.787795 141.625315 
L 214.569606 141.865439 
L 214.804055 141.647732 
L 214.848979 141.788778 
L 214.817966 141.693272 
L 214.667508 141.700083 
L 214.653325 141.575681 
L 214.804216 141.515916 
L 214.807678 141.648029 
L 214.721645 141.618241 
L 214.651301 141.421832 
L 214.75495 141.368884 
L 214.528027 141.42935 
L 214.622887 141.493268 
L 214.638989 141.702985 
L 214.744412 141.63899 
L 215.000641 141.647222 
L 215.155943 141.65794 
L 215.086602 141.683787 
L 214.992218 141.765525 
L 215.068023 141.782826 
L 215.029725 141.88729 
L 215.166891 141.487538 
L 215.237606 141.621518 
L 215.269791 141.618933 
L 215.145084 141.517485 
L 215.271183 141.453028 
L 215.027578 141.557371 
L 215.240181 141.414524 
L 215.224853 141.302506 
L 215.241052 141.565829 
L 215.309825 141.463088 
L 215.62042 141.519737 
L 215.293661 141.521732 
L 215.29003 141.709788 
L 215.224796 141.407689 
L 215.063855 141.440295 
L 215.101732 141.442196 
L 215.197772 141.555354 
L 214.88122 141.250166 
L 215.107734 141.358112 
L 215.218174 141.346414 
L 215.252375 141.241861 
L 215.072789 141.27505 
L 214.972156 141.305024 
L 214.989952 141.199362 
L 214.972861 141.181907 
L 215.049383 141.134785 
L 215.093619 141.040395 
L 214.994849 141.01371 
L 214.939691 140.939648 
L 214.94122 141.114938 
L 214.918268 141.104701 
L 214.806476 141.071948 
L 214.934859 141.121498 
L 214.88871 141.041902 
L 214.905801 140.978105 
L 215.174864 141.018193 
L 215.166374 140.919444 
L 215.134008 140.865542 
L 214.94503 141.069467 
L 214.819282 140.97149 
L 214.962159 141.045716 
L 214.995958 140.844919 
L 214.945923 140.916819 
L 214.858094 141.066546 
L 214.877901 141.047136 
L 214.878472 141.208873 
L 214.754861 141.026486 
L 214.818313 141.077129 
L 214.810223 141.434529 
L 214.694964 141.381141 
L 214.658502 141.702293 
L 214.509424 141.637868 
L 214.445548 141.672103 
L 214.686742 141.692047 
L 214.50274 141.975222 
L 214.58931 142.020497 
L 214.526681 142.389368 
L 214.528085 142.274186 
L 214.457997 141.994573 
L 214.458274 141.979307 
L 214.508898 142.204546 
L 214.623621 142.239961 
L 214.434869 142.236251 
L 214.373098 142.391488 
L 214.428455 142.402553 
L 214.352236 142.535865 
L 214.537314 142.433029 
L 214.545879 142.386069 
L 214.569751 142.390562 
L 214.717013 142.331872 
L 214.707245 142.312521 
L 214.595165 142.229034 
L 214.579778 142.264506 
L 214.628385 142.513758 
L 214.686123 142.496073 
L 214.588234 142.614536 
L 214.648446 142.655919 
L 214.682138 142.563151 
L 214.781183 142.468168 
L 214.700519 142.78312 
L 214.878103 143.098019 
L 215.135456 143.147152 
L 215.307395 143.095065 
L 215.288504 143.110224 
L 215.289774 142.959403 
L 215.299287 143.048396 
L 215.588833 142.916278 
L 215.52921 142.761378 
L 215.486029 142.877594 
L 215.367129 143.026491 
L 215.404642 143.024705 
L 215.350498 142.753646 
L 215.432322 142.68829 
L 215.286904 142.667676 
L 215.288585 142.455154 
L 215.075709 142.413004 
L 215.81803 142.352252 
L 215.965945 142.463029 
L 215.754144 142.258146 
L 215.768998 142.256939 
L 216.108349 142.095377 
L 216.135685 142.177861 
L 216.208523 142.242134 
L 215.98247 141.903372 
L 216.044192 141.998715 
L 215.942902 141.99679 
L 215.880814 142.059982 
L 216.008009 141.88433 
L 215.989384 141.878475 
L 215.813603 141.810808 
L 215.955064 141.833726 
L 216.067635 141.606682 
L 216.092052 141.476691 
L 216.615259 141.249695 
L 216.492396 141.340861 
L 216.684055 141.369774 
L 216.681824 141.343149 
L 216.734245 141.299901 
L 216.487015 141.409569 
L 216.754008 141.419177 
L 216.891674 141.243715 
L 216.822373 141.155731 
L 216.947602 141.149097 
L 217.195626 140.830524 
L 216.852381 140.527 
L 216.888064 140.41706 
L 216.982824 140.122613 
L 217.140617 140.03923 
L 217.448774 140.178435 
L 217.368283 140.096838 
L 217.590891 140.029576 
L 217.523226 140.028625 
L 217.565207 139.958847 
L 217.524368 139.753117 
L 217.672953 139.531429 
L 217.605739 139.550423 
L 217.61235 139.483488 
L 217.584618 139.589523 
L 217.304809 139.83253 
L 217.415949 139.953657 
L 217.464513 139.863745 
L 217.417396 139.701513 
L 217.436465 139.862332 
L 217.227105 139.908363 
L 217.26917 139.932496 
L 217.106925 139.816755 
L 217.305356 139.797727 
L 217.344231 139.479917 
L 217.416458 139.540311 
L 217.498401 139.464852 
L 217.415358 139.47767 
L 217.344034 139.422909 
L 217.439081 139.555211 
L 217.461096 139.418386 
L 217.356406 139.444898 
L 217.41505 139.16664 
L 217.283225 139.116759 
L 217.466103 139.160986 
L 217.584047 138.9626 
L 217.469977 138.946989 
L 217.32118 138.817983 
L 217.36519 138.776585 
L 217.686693 138.402259 
L 217.648221 138.448148 
L 217.854757 138.537897 
L 217.866302 138.463196 
L 217.91312 138.472032 
L 217.904414 138.457579 
L 217.765108 138.32608 
L 217.861171 138.319776 
L 218.0418 138.126328 
L 218.451888 138.017998 
L 218.417946 138.013767 
L 218.422722 137.821812 
L 218.459031 137.870974 
L 218.54944 137.887213 
L 218.393914 137.79646 
L 218.347854 137.43353 
L 218.189294 137.546353 
L 218.292055 137.650833 
L 218.358146 137.57108 
L 218.471524 137.606728 
L 218.437934 137.646763 
L 218.372786 137.698694 
L 218.525344 137.666603 
L 218.622294 137.68978 
L 218.595668 137.598245 
L 218.598656 137.394428 
L 218.521244 137.440009 
L 218.487532 137.683536 
L 218.495707 137.800661 
L 218.621412 137.814633 
L 218.626461 137.723106 
L 218.690782 137.670482 
L 218.538377 137.674241 
L 218.310803 137.459725 
L 218.357288 137.595707 
L 218.329576 137.622783 
L 218.736201 137.207698 
L 218.578056 137.151978 
L 218.730977 137.209014 
L 218.867265 137.093992 
L 218.715575 137.184453 
L 218.583844 137.126661 
L 218.706221 137.103117 
L 218.776951 136.665157 
L 218.942673 136.616632 
L 218.996875 135.987037 
L 218.966913 136.03109 
L 219.076353 136.141487 
L 219.064065 136.032904 
L 219.188506 135.979002 
L 219.026489 136.027963 
L 219.046682 135.932658 
L 218.794272 135.922681 
L 219.044103 135.904398 
L 218.930271 135.804122 
L 218.987 135.763112 
L 218.920544 135.60361 
L 218.97454 135.766103 
L 219.044981 135.782373 
L 219.069961 135.941941 
L 219.074736 135.706224 
L 219.103251 135.642021 
L 219.15921 135.698938 
L 219.18738 135.786878 
L 219.223102 135.669816 
L 219.280055 135.712968 
L 219.348259 135.45159 
L 219.201562 135.441076 
L 219.070661 135.006847 
L 219.276591 134.974796 
L 219.254565 134.906316 
L 219.272515 134.84225 
L 219.141895 134.773811 
L 219.219944 134.807498 
L 218.910168 135.237834 
L 218.843887 135.068324 
L 218.675575 135.059763 
L 218.665818 134.916531 
L 218.798834 134.892451 
L 218.776807 134.868301 
L 218.81263 134.716665 
L 218.61448 134.551298 
L 218.842396 134.082668 
L 218.828355 134.155035 
L 218.978573 134.051547 
L 219.009939 133.957532 
L 219.048976 134.093792 
L 219.094572 134.022724 
L 219.271496 133.895499 
L 219.082173 134.102704 
L 219.210716 133.895511 
L 219.386488 133.95917 
L 219.368818 133.849439 
L 219.263458 133.713218 
L 219.3601 133.685464 
L 219.400789 133.33116 
L 219.457212 133.369316 
L 219.388938 133.204423 
L 219.514775 133.312313 
L 219.634165 133.450906 
L 219.479622 133.398136 
L 219.486336 133.316543 
L 219.615393 133.432981 
L 219.870002 133.474275 
L 219.529642 133.50487 
L 219.570731 133.515195 
L 219.461782 133.709766 
L 219.665428 133.467512 
L 219.744367 133.522155 
L 219.76536 133.404956 
L 219.907495 133.449729 
L 219.89084 133.48117 
L 219.784734 133.535307 
L 220.011066 133.527108 
L 220.003758 133.557529 
L 220.062481 133.529111 
L 220.206504 133.462721 
L 220.216076 133.019347 
L 220.276501 132.900354 
L 220.038669 132.841604 
L 220.08786 132.827452 
L 220.013557 132.400991 
L 220.106822 132.442459 
L 220.473735 131.76189 
L 220.474393 131.776902 
L 220.495984 131.904842 
L 220.593505 131.778027 
L 220.660111 131.684013 
L 220.601888 131.726599 
L 220.699658 131.599586 
L 220.773727 131.579518 
L 220.889965 131.512987 
L 220.825004 131.45286 
L 220.81264 131.275766 
L 220.718458 131.280267 
L 220.751355 131.265485 
L 220.582743 131.163291 
L 220.599691 131.134629 
L 220.624867 131.302275 
L 220.815752 131.023501 
L 220.769191 131.02448 
L 220.944128 130.941001 
L 220.977009 130.833388 
L 220.935547 130.863988 
L 220.854621 130.807165 
L 220.813996 130.525946 
L 220.819714 130.475831 
L 220.698449 130.63835 
L 220.83249 130.608037 
L 220.942129 130.596008 
L 220.920692 130.541459 
L 220.835377 130.04572 
L 220.909308 129.938575 
L 220.823802 129.895594 
L 220.702759 129.875386 
L 221.002895 129.916601 
L 220.885178 129.623545 
L 221.043928 129.557068 
L 220.97541 129.55147 
L 220.848665 129.402522 
L 221.042548 129.611902 
L 221.018161 129.456706 
L 221.09806 129.091315 
L 221.240801 129.006333 
L 221.466205 128.898665 
L 221.387148 128.840677 
L 221.484458 128.787589 
L 221.492928 128.477367 
L 221.538284 128.430175 
L 221.555371 128.443569 
L 221.711888 128.351521 
L 221.817197 128.135279 
L 221.98019 127.906019 
L 222.104778 127.670646 
L 221.878196 127.425949 
L 221.926126 127.367777 
L 221.724649 127.161419 
L 221.668693 127.14215 
L 221.782416 127.125176 
L 221.751681 126.852766 
L 221.828264 126.875551 
L 221.97097 126.823179 
L 221.913678 126.737111 
L 221.931205 126.707703 
L 221.836199 126.767844 
L 221.745372 126.740434 
L 221.87157 126.719404 
L 221.954419 126.540069 
L 221.734324 126.368734 
L 221.790339 126.470851 
L 221.662975 126.449134 
L 221.727409 126.441276 
L 221.683564 126.302016 
L 221.7105 126.342251 
L 221.799896 126.151189 
L 221.869659 125.918808 
L 221.68254 125.458316 
L 221.747362 125.477183 
L 221.52366 125.316924 
L 221.507362 125.207246 
L 221.701063 125.10176 
L 221.802632 124.942278 
L 221.845577 124.972273 
L 222.039603 124.971425 
L 221.991971 124.95978 
L 222.097014 124.676868 
L 222.233153 124.514064 
L 222.062646 124.4696 
L 222.220809 124.465103 
L 222.260582 124.269768 
L 222.274829 124.314119 
L 222.42662 124.199887 
L 222.370296 124.12346 
L 222.503005 124.083238 
L 222.450777 123.987237 
L 222.579378 123.806575 
L 222.526298 123.540179 
L 222.471373 123.612125 
L 222.360315 123.561526 
L 222.429796 123.55727 
L 222.499087 123.276906 
L 222.317144 123.095723 
L 222.311081 123.196158 
L 222.584811 122.633032 
L 222.515809 122.496407 
L 222.585394 122.469987 
L 222.616494 122.168392 
L 222.812863 122.010148 
L 222.976205 122.025738 
L 222.842096 122.050927 
L 222.924477 121.867019 
L 222.846795 121.894381 
L 222.465294 121.677719 
L 222.376256 121.263727 
L 222.284033 121.195266 
L 222.356211 121.162894 
L 222.452296 121.028291 
L 222.435419 121.158465 
L 222.551105 121.131711 
L 222.378778 121.054908 
L 222.420101 120.894796 
L 222.352923 120.716386 
L 222.400282 120.743257 
L 222.41742 120.687964 
L 222.449294 120.731593 
L 222.278477 120.62326 
L 222.181532 120.422074 
L 222.215852 120.270025 
L 222.386716 119.93758 
L 222.211443 120.013162 
L 222.083056 119.784133 
L 222.234886 119.701942 
L 222.195859 119.652611 
L 222.089245 119.477226 
L 222.166543 119.161668 
L 222.201969 119.160583 
L 221.906608 119.142869 
L 221.923136 118.815642 
L 221.98406 118.817607 
L 221.974527 118.713656 
L 221.94805 118.5749 
L 222.077096 118.336143 
L 222.130085 118.151524 
L 222.343815 118.075341 
L 222.298713 118.043084 
L 221.814334 117.786818 
L 221.857437 117.763015 
L 221.67509 117.553119 
L 221.539287 117.102396 
L 221.302475 117.092749 
L 221.221395 116.938602 
L 221.518215 116.686787 
L 221.120155 116.995149 
L 221.1095 116.920687 
L 220.907254 116.844843 
L 220.988754 116.76462 
L 221.114706 116.657068 
L 221.115638 116.424717 
L 221.070944 116.155475 
L 221.174016 115.969773 
L 220.989468 115.894131 
L 221.042687 115.69304 
L 220.936141 115.740042 
L 220.764147 115.473522 
L 220.653862 115.469778 
L 220.717205 115.34992 
L 220.644976 115.329299 
L 220.656979 115.016132 
L 220.743123 115.015914 
L 220.674958 114.974681 
L 220.851453 114.72717 
L 220.92649 114.949967 
L 220.905374 114.801263 
L 221.060396 114.762216 
L 220.998497 114.66772 
L 221.123093 114.389965 
L 221.071515 114.343701 
L 220.865855 114.315662 
L 220.848344 113.762537 
L 220.671258 113.53374 
L 220.653081 113.612455 
L 220.936689 113.218308 
L 220.876851 113.277568 
L 220.976695 113.23089 
L 220.832815 113.328575 
L 220.831019 113.191384 
L 220.818584 113.019448 
L 220.881935 113.063407 
L 220.779323 112.947074 
L 220.707446 112.681835 
L 220.549323 112.653247 
L 220.576065 112.616857 
L 220.642921 112.290549 
L 220.91221 111.621367 
L 220.728082 111.60662 
L 220.704678 111.208286 
L 220.612539 110.982958 
L 220.587521 111.043271 
L 220.747469 110.943526 
L 220.610941 110.897493 
L 220.453828 110.759922 
L 220.358485 110.863499 
L 220.520986 110.193774 
L 220.59868 110.118977 
L 220.535119 110.078761 
L 220.428954 109.992216 
L 220.476257 110.119133 
L 220.414627 110.023706 
L 220.316959 110.051243 
L 220.351704 109.952069 
L 220.262213 109.665867 
L 220.289376 109.667872 
L 220.376448 109.477891 
L 220.285494 109.318901 
L 220.210319 109.344157 
L 220.216552 109.250284 
L 220.153725 108.727351 
L 220.047928 108.642431 
L 220.125134 108.588796 
L 220.170304 108.117411 
L 219.907542 108.05788 
L 220.00973 107.775665 
L 219.723957 107.547372 
L 219.915366 107.354222 
L 219.833425 107.302958 
L 219.659773 106.633124 
L 219.420784 106.555768 
L 219.301916 106.105206 
L 219.24054 106.1956 
L 219.292008 106.170125 
L 219.415546 106.152055 
L 219.155193 106.083507 
L 219.263307 105.950334 
L 219.318531 106.004027 
L 219.284934 105.978538 
L 219.413026 105.863466 
L 219.279456 105.301128 
L 219.454872 105.099877 
L 219.403156 105.102157 
L 219.269909 105.063691 
L 219.16905 104.939174 
L 219.201641 104.844235 
L 218.954648 104.630872 
L 218.759159 103.915294 
L 218.690015 104.171729 
L 218.521391 104.036785 
L 218.612115 104.00142 
L 218.644167 104.073679 
L 218.601144 103.968093 
L 218.252086 103.714432 
L 218.17926 103.638586 
L 218.166636 103.372269 
L 218.103743 103.481793 
L 218.108714 103.581526 
L 218.030493 103.27693 
L 217.8835 102.98753 
L 217.865718 102.858396 
L 217.454157 102.564468 
L 217.410441 102.64698 
L 217.285452 102.602328 
L 217.284114 102.645804 
L 217.19728 102.703272 
L 216.771337 102.438232 
L 216.810598 102.537871 
L 216.80904 102.426531 
L 216.91713 102.304377 
L 216.72768 102.177808 
L 216.740692 102.08822 
L 216.649512 102.085663 
L 216.568371 102.113623 
L 216.847696 101.966325 
L 216.830734 101.92815 
L 216.687903 101.706525 
L 216.773557 101.739035 
L 216.636189 101.709279 
L 216.448149 101.222469 
L 216.283625 101.176233 
L 216.361045 101.141003 
L 216.37746 101.026267 
L 216.298156 101.113903 
L 216.041077 100.534314 
L 215.461158 100.273767 
L 215.579092 100.15822 
L 215.648473 99.858711 
L 215.646698 99.527155 
L 215.567615 99.466368 
L 215.622315 99.409011 
L 215.664812 99.357295 
L 215.433504 99.273207 
L 215.231896 99.182778 
L 215.023029 98.747183 
L 214.815125 98.765967 
L 214.922105 98.788723 
L 214.837027 98.301041 
L 214.488102 98.113936 
L 214.54443 98.087117 
L 214.685726 97.881066 
L 214.680181 97.815018 
L 214.373275 97.654321 
L 214.420437 97.714593 
L 214.500101 97.549707 
L 214.305482 97.338883 
L 214.259042 96.971886 
L 213.824885 96.852581 
L 213.851843 96.803869 
L 213.865022 96.579672 
L 213.882509 96.524972 
L 213.699515 96.44385 
L 213.631794 96.37634 
L 213.70244 96.26562 
L 213.157619 95.91378 
L 213.083492 95.754941 
L 213.19821 95.581507 
L 213.260371 95.352469 
L 213.303606 95.481207 
L 213.045075 95.233002 
L 213.174027 95.189086 
L 213.145274 95.243566 
L 213.075823 95.155993 
L 213.037228 95.260157 
L 212.95952 95.165987 
L 212.924191 94.954228 
L 212.943905 94.965861 
L 212.933999 94.688617 
L 212.694488 94.805677 
L 212.671971 94.761769 
L 212.668646 94.518106 
L 212.450697 94.667714 
L 212.539547 94.536765 
L 212.386136 94.352167 
L 212.308504 94.109704 
L 212.166649 94.00751 
L 212.376378 94.02289 
L 212.321164 94.036249 
L 212.307344 93.743023 
L 211.982344 93.580948 
L 211.936742 93.33565 
L 211.76196 93.257853 
L 211.839493 93.09698 
L 211.821187 93.097208 
L 211.494208 92.992936 
L 211.459927 92.862002 
L 211.491843 92.919303 
L 211.569828 92.876493 
L 211.463217 92.646077 
L 211.386044 92.698668 
L 210.961319 92.631108 
L 211.007133 92.537588 
L 210.68702 91.819484 
L 210.560058 91.622659 
L 210.956412 91.069558 
L 210.826012 91.084099 
L 210.58005 90.913207 
L 210.672863 90.674444 
L 210.733145 90.495974 
L 210.517147 90.525318 
L 210.216674 90.003517 
L 209.518633 89.405094 
L 209.456329 89.43033 
L 209.414082 89.323435 
L 209.188242 89.158817 
L 209.252941 88.966373 
L 209.249342 88.972932 
L 209.156733 88.891467 
L 209.070163 88.687948 
L 208.858037 88.580914 
L 208.834732 88.407667 
L 208.762037 88.275699 
L 208.770447 88.132585 
L 208.502562 88.070677 
L 208.31524 87.971043 
L 208.146192 87.91098 
L 207.990591 87.644804 
L 207.718893 87.422604 
L 207.669686 87.224846 
L 207.385476 87.139504 
L 207.034215 86.466551 
L 206.696456 86.049124 
L 206.016441 85.272964 
L 206.008909 85.196207 
L 206.008909 85.196207 
" clip-path="url(#p5c8e9cfdb5)" style="fill: none; stroke: #22aa22; stroke-width: 1.5; stroke-linecap: square"/>
   </g>
   <g id="line2d_14">
    <path d="M 202.868841 290.676343 
L 202.826448 290.428808 
L 203.023031 289.861616 
L 202.968513 289.304005 
L 203.012051 288.692147 
L 203.018473 288.325223 
L 203.41526 286.696483 
L 203.414574 286.230552 
L 203.376511 285.573139 
L 203.384489 284.969419 
L 203.117567 284.334609 
L 203.283905 283.79029 
L 203.217828 283.02935 
L 203.166185 282.254102 
L 203.112916 282.139963 
L 203.188807 281.882594 
L 203.028214 281.743949 
L 203.260404 279.041115 
L 203.24688 278.722251 
L 203.086318 277.165476 
L 203.140668 276.940401 
L 203.007187 276.740784 
L 203.04167 276.263638 
L 203.175214 275.350205 
L 203.206991 274.767675 
L 203.453903 273.269556 
L 203.383141 273.133876 
L 203.4941 272.76324 
L 203.547946 272.216494 
L 203.605803 271.291847 
L 204.01388 268.409842 
L 203.911428 267.966624 
L 203.983303 267.549006 
L 203.998478 266.978119 
L 204.1295 266.676877 
L 204.048854 266.399094 
L 204.25227 266.064924 
L 204.358102 265.16012 
L 204.389222 262.991169 
L 204.216397 260.191977 
L 204.247605 259.711167 
L 204.242954 259.254419 
L 204.369217 259.104671 
L 204.475549 258.228608 
L 204.553615 257.53059 
L 204.393348 257.012506 
L 204.42801 256.790453 
L 204.229434 256.280521 
L 204.301274 255.882833 
L 203.939969 253.869936 
L 204.109231 252.833386 
L 204.073283 252.647354 
L 204.186035 252.101489 
L 204.096385 251.617022 
L 204.102052 250.969532 
L 204.129649 249.376528 
L 204.336203 248.746644 
L 204.417549 248.07322 
L 204.479784 247.222979 
L 204.315746 246.358305 
L 204.220329 246.146792 
L 204.222992 245.403196 
L 204.19852 245.086513 
L 204.106798 244.83537 
L 204.255367 244.051653 
L 204.28915 243.25684 
L 204.417761 243.138363 
L 204.351718 239.886642 
L 204.401301 238.873297 
L 204.377194 237.658123 
L 204.5533 237.334382 
L 205.196341 234.754547 
L 205.231475 233.970076 
L 205.286383 233.877596 
L 205.297421 232.050778 
L 205.405456 231.909198 
L 205.486835 230.571264 
L 205.747626 229.597121 
L 205.861649 229.374703 
L 205.960384 228.810231 
L 206.172076 228.332594 
L 206.103872 228.068912 
L 206.380631 226.906017 
L 206.264168 226.698382 
L 206.22525 226.360746 
L 206.134235 225.741743 
L 206.15121 224.929673 
L 206.259128 224.1047 
L 206.192351 223.349303 
L 206.186921 222.777171 
L 206.119349 221.717051 
L 206.268459 221.60556 
L 206.546166 220.998167 
L 206.620263 219.641881 
L 206.954237 219.080241 
L 206.789829 217.422991 
L 206.962168 217.295742 
L 206.990227 216.892138 
L 207.15848 216.750629 
L 207.092801 216.162913 
L 207.131309 215.183329 
L 207.318925 212.973757 
L 207.481301 212.588132 
L 207.468206 212.311603 
L 207.626478 211.282619 
L 207.842097 210.039616 
L 208.245102 209.360878 
L 208.458392 208.660838 
L 208.489945 208.280162 
L 208.59237 207.943247 
L 208.545958 207.816268 
L 208.756904 207.023478 
L 208.872161 206.160612 
L 209.367679 205.168125 
L 209.356756 204.391958 
L 209.430887 204.053624 
L 209.395942 203.924337 
L 209.938902 202.758381 
L 209.857189 202.729632 
L 210.053866 201.730642 
L 209.939572 201.476874 
L 209.773795 200.940422 
L 210.028943 200.614151 
L 209.989474 200.131429 
L 209.959896 199.47439 
L 209.926296 199.382251 
L 209.980173 199.282926 
L 209.944578 199.032734 
L 209.900884 198.634261 
L 209.821536 197.935934 
L 210.026618 197.733756 
L 209.895415 197.450374 
L 210.079645 197.17846 
L 210.009642 196.319781 
L 210.052188 196.073547 
L 210.249734 195.615522 
L 210.746712 194.676695 
L 210.835073 193.995515 
L 210.913792 193.764286 
L 210.93874 193.375393 
L 211.15224 192.606951 
L 211.325612 191.326411 
L 211.763879 190.25775 
L 211.643278 190.125088 
L 211.74781 189.649588 
L 211.859461 189.666286 
L 211.932834 189.001562 
L 211.883852 188.826343 
L 212.017743 188.676865 
L 212.123444 188.007021 
L 212.570037 187.090016 
L 212.470877 186.908274 
L 212.618143 185.892011 
L 212.782617 185.714569 
L 212.763857 185.484513 
L 212.931051 185.102076 
L 212.951225 184.276049 
L 213.138767 184.004484 
L 213.086848 183.980672 
L 213.09419 183.871723 
L 213.266018 183.495381 
L 213.227019 183.03709 
L 213.318058 182.772885 
L 213.404239 182.55841 
L 213.482567 182.08256 
L 213.28621 181.872237 
L 213.427869 181.593233 
L 213.538023 181.378908 
L 213.674981 180.929821 
L 214.052583 179.748079 
L 214.143316 179.728799 
L 214.300312 178.812226 
L 214.372777 178.743391 
L 214.232295 178.511519 
L 214.449023 177.699624 
L 214.753223 177.410148 
L 215.236131 176.333988 
L 215.578258 175.847095 
L 215.80474 175.264164 
L 216.417962 174.578927 
L 216.521799 174.072497 
L 216.964746 173.533047 
L 217.172706 172.80268 
L 217.260401 172.785411 
L 217.323978 172.64349 
L 217.23802 172.47767 
L 217.394355 172.324023 
L 217.664435 171.858377 
L 218.278694 169.702044 
L 218.480313 169.567856 
L 218.760935 169.15642 
L 219.233725 168.780102 
L 219.253271 168.406583 
L 219.189226 168.137607 
L 219.489357 168.089257 
L 219.374599 167.995928 
L 219.9756 167.39787 
L 220.11459 167.232034 
L 220.70306 166.484659 
L 220.705015 166.530138 
L 220.697346 166.179928 
L 220.866902 166.149232 
L 221.017221 165.746806 
L 220.973495 165.610976 
L 221.071182 165.387527 
L 221.296856 164.83045 
L 221.668309 164.237139 
L 221.808271 163.866776 
L 221.824921 163.886266 
L 221.901057 163.635575 
L 222.232082 163.464929 
L 222.384987 163.406142 
L 222.335809 163.262504 
L 222.510357 163.002621 
L 222.401146 162.839938 
L 222.509278 162.47726 
L 223.134099 161.151702 
L 223.447752 161.106596 
L 224.98476 157.360363 
L 225.328095 157.09239 
L 225.628036 156.601596 
L 225.938509 156.0005 
L 225.883509 155.87613 
L 226.196461 155.392675 
L 226.689151 154.288799 
L 226.868196 154.054195 
L 227.015573 153.867365 
L 227.18915 153.423526 
L 227.471782 152.663619 
L 227.620975 152.705776 
L 227.744033 152.555869 
L 227.810171 152.386004 
L 227.996818 152.065517 
L 228.02793 151.787994 
L 228.277475 151.530793 
L 228.213514 151.282291 
L 228.209969 151.044339 
L 228.395021 150.787553 
L 228.404732 150.604382 
L 228.81229 150.02644 
L 228.847336 149.692026 
L 228.902157 149.540824 
L 228.909128 149.415227 
L 229.068473 149.312589 
L 229.058698 149.029175 
L 229.268296 148.889316 
L 229.252007 148.718014 
L 229.552059 148.412856 
L 229.509114 148.269294 
L 229.721531 148.040809 
L 230.307487 146.510322 
L 230.467383 146.402539 
L 230.427511 146.166295 
L 230.627041 145.772413 
L 230.613975 145.309237 
L 230.572172 145.284921 
L 230.638172 145.216986 
L 230.732909 145.124515 
L 230.693037 144.901469 
L 230.641768 144.21024 
L 230.913444 143.455716 
L 230.812327 143.388957 
L 230.940714 143.130682 
L 231.166923 142.810731 
L 231.30522 142.455747 
L 231.226344 142.001118 
L 231.393104 141.955699 
L 231.892508 139.898788 
L 231.89526 138.944376 
L 232.005232 138.529486 
L 232.168891 138.032528 
L 232.013024 137.651176 
L 232.092827 136.874068 
L 232.023754 136.027441 
L 232.155801 135.81791 
L 232.154041 134.98162 
L 232.169597 134.745725 
L 232.406492 134.481717 
L 232.354883 134.47927 
L 232.283145 134.304066 
L 232.430328 133.460251 
L 232.485384 133.149474 
L 232.520929 132.98986 
L 232.686591 131.176488 
L 232.712037 130.8813 
L 232.965151 130.591171 
L 233.092713 129.473312 
L 233.269089 129.356528 
L 233.172841 129.330749 
L 233.095675 129.222319 
L 233.193862 129.077975 
L 233.138537 129.052939 
L 233.093415 128.584209 
L 232.964381 128.474591 
L 232.959266 127.41522 
L 233.064241 127.274801 
L 232.909842 127.090434 
L 233.042472 126.862601 
L 232.975714 126.827175 
L 232.989958 126.411142 
L 233.013925 126.281138 
L 232.878444 125.947168 
L 232.890732 125.58646 
L 232.790071 125.291421 
L 232.817698 124.64319 
L 232.910995 124.367532 
L 232.879257 124.276023 
L 233.009448 124.179233 
L 232.979002 123.985885 
L 233.103776 123.948885 
L 233.195333 123.143687 
L 233.028823 123.147068 
L 233.038629 122.6776 
L 233.053004 122.549031 
L 232.811068 121.19807 
L 232.694974 121.160397 
L 232.730186 121.087431 
L 232.683637 120.735393 
L 232.606343 120.512539 
L 232.700771 120.429861 
L 232.639688 119.953557 
L 232.624687 119.592931 
L 232.677102 119.589864 
L 232.691615 119.244759 
L 232.689168 118.462334 
L 232.753701 118.350308 
L 232.605352 118.070861 
L 232.755703 117.837865 
L 232.59093 116.300955 
L 232.448228 116.326055 
L 232.214806 115.753049 
L 232.180196 115.535092 
L 232.083651 115.238464 
L 232.034191 115.12897 
L 232.0414 114.612522 
L 231.992654 113.39863 
L 231.879997 113.351283 
L 231.796225 112.692431 
L 231.72112 112.542219 
L 231.862379 111.649256 
L 231.933379 110.991624 
L 231.637697 109.820919 
L 231.597754 109.794837 
L 231.636039 109.112427 
L 231.732806 109.011249 
L 231.571154 108.63405 
L 231.17481 107.716961 
L 231.264805 107.518726 
L 231.266141 107.123802 
L 231.225845 106.640736 
L 231.116428 106.499384 
L 230.993121 106.08753 
L 230.811074 105.911459 
L 230.643017 105.557008 
L 230.576435 105.532363 
L 230.360528 104.609626 
L 230.239711 103.730569 
L 230.110689 103.729149 
L 229.817005 103.07673 
L 229.298695 102.59706 
L 229.058857 101.928283 
L 228.92135 101.614832 
L 228.91717 99.929836 
L 228.715891 99.792425 
L 228.530633 99.749217 
L 228.608434 99.643795 
L 228.562951 99.590451 
L 228.431276 99.609621 
L 228.443763 99.497526 
L 227.75828 97.821668 
L 227.407233 97.262917 
L 227.280326 96.690737 
L 226.835862 96.614843 
L 226.489038 95.953478 
L 226.44628 95.799712 
L 226.268643 95.477139 
L 226.088166 95.260002 
L 225.92262 94.797197 
L 225.589635 94.242056 
L 225.436544 93.925175 
L 225.512758 93.793957 
L 225.305968 93.587543 
L 225.371282 93.542441 
L 225.289861 93.43765 
L 225.250655 93.177406 
L 225.203209 92.982163 
L 225.171906 92.489292 
L 224.997747 92.328204 
L 224.920446 91.784341 
L 224.841527 90.995714 
L 224.819317 90.550549 
L 224.667657 90.313007 
L 224.632607 90.057784 
L 224.48266 89.648045 
L 224.395751 89.345039 
L 224.295498 89.305706 
L 224.228107 89.067867 
L 224.090397 88.730024 
L 224.106746 88.525827 
L 223.988257 88.251808 
L 224.016641 87.93978 
L 223.719349 87.366696 
L 223.745802 87.104204 
L 223.697377 86.652674 
L 223.646053 86.675523 
L 223.342146 86.239965 
L 223.438338 85.851259 
L 222.963401 85.463378 
L 222.714256 84.831578 
L 222.659562 84.653176 
L 222.367877 83.997679 
L 222.071707 83.789671 
L 222.116979 83.753285 
L 221.893443 83.151222 
L 221.330308 82.785626 
L 221.404191 82.575397 
L 221.153654 82.134963 
L 221.160078 81.927098 
L 221.033975 81.365612 
L 220.877676 81.187027 
L 220.926692 81.010251 
L 220.808135 80.943387 
L 220.893335 80.630954 
L 220.529999 80.181419 
L 220.419591 79.841702 
L 220.253839 79.210627 
L 220.203918 79.092451 
L 220.118651 79.021138 
L 219.794434 77.648729 
L 219.647425 77.471246 
L 219.56345 77.200911 
L 219.490829 77.218794 
L 219.599234 77.094976 
L 219.247237 76.785018 
L 219.282652 76.700301 
L 219.078336 76.364934 
L 219.035161 76.213238 
L 218.608385 75.814032 
L 218.434454 74.823901 
L 218.288724 74.441698 
L 218.239443 74.184539 
L 218.124954 74.155675 
L 218.090065 72.927851 
L 218.018188 72.62448 
L 218.118542 72.025771 
L 218.084275 71.876134 
L 217.872724 71.652257 
L 217.02431 69.425463 
L 216.880488 69.298476 
L 216.28347 67.337521 
L 216.219219 67.001923 
L 216.37672 66.644385 
L 216.050106 65.944075 
L 215.909575 65.865553 
L 215.778135 64.91021 
L 215.774207 64.820529 
L 215.724642 64.232499 
L 215.72501 63.965915 
L 215.738618 63.941944 
L 215.62948 63.881524 
L 215.63658 63.613528 
L 215.546547 63.653503 
L 215.382546 63.477547 
L 215.426406 63.313658 
L 215.064 62.836329 
L 214.531562 60.62217 
L 214.39919 60.516488 
L 214.438081 60.265 
L 213.84834 58.838777 
L 213.846744 58.306797 
L 213.673324 58.126048 
L 213.685509 57.867656 
L 213.497158 57.269121 
L 213.315032 57.031564 
L 213.290342 56.717069 
L 212.714819 54.630162 
L 212.623758 54.327033 
L 212.56054 54.061163 
L 212.542275 53.206394 
L 212.532076 52.415999 
L 212.306974 52.040937 
L 212.094416 51.752464 
L 211.905691 50.602885 
L 211.712768 50.289668 
L 211.481093 49.378686 
L 211.078482 48.845263 
L 211.379813 48.269316 
L 211.425091 47.973903 
L 211.248085 47.586073 
L 211.006272 46.657731 
L 211.116274 46.518435 
L 211.082431 46.378893 
L 210.967848 46.387157 
L 210.91332 46.234205 
L 210.739884 46.102744 
L 210.829981 45.785149 
L 210.817937 45.127761 
L 210.592364 44.840113 
L 210.666128 44.434447 
L 210.180437 42.283784 
L 210.099953 42.194944 
L 210.041262 41.804893 
L 209.945284 41.6076 
L 209.837975 41.007147 
L 209.772754 40.281292 
L 209.59041 40.206442 
L 209.582543 39.822926 
L 209.635461 38.992053 
L 209.563771 38.461652 
L 209.475406 38.328312 
L 209.434081 37.864157 
L 209.405657 37.577349 
L 209.356136 36.885152 
L 209.26129 36.526587 
L 209.346066 36.027742 
L 209.274514 35.592495 
L 209.348044 35.40743 
L 209.273753 35.029958 
L 209.080927 33.746437 
L 208.983031 33.172242 
L 208.986588 32.708935 
L 209.091889 32.274243 
L 209.097902 32.038588 
L 208.924328 31.710255 
L 208.740443 29.396965 
L 208.85222 29.232536 
L 208.760873 28.286659 
L 208.512757 27.977248 
L 208.688428 27.372552 
L 207.94598 23.436169 
L 208.051144 22.977002 
L 207.992706 22.652087 
L 208.067198 22.462526 
L 208.027768 22.048319 
L 207.916488 20.787995 
L 207.894394 20.633503 
L 207.987525 20.245364 
L 207.747856 18.828955 
L 207.733507 18.058609 
L 207.682895 17.920479 
L 207.735367 17.728832 
L 207.645934 17.163322 
L 207.642702 16.794383 
L 207.636421 16.173754 
L 207.146036 12.588727 
L 206.940033 12.348084 
L 206.695153 12.037817 
L 206.769413 11.704575 
L 206.650733 11.541638 
L 206.555078 10.972868 
L 206.442963 10.560548 
L 206.532017 10.441372 
L 206.320758 8.499558 
L 206.120199 8.051003 
L 206.091399 7.320485 
L 206.025589 6.768512 
L 206.105004 5.120224 
L 206.102498 4.704057 
L 206.094676 3.95012 
L 206.087409 2.805109 
L 206.169959 2.044074 
L 206.20921 0.769919 
L 206.24401 0.175977 
L 206.327002 0.039631 
L 206.293258 -0.56654 
L 206.334886 -1 
L 206.334886 -1 
" clip-path="url(#p5c8e9cfdb5)" style="fill: none; stroke: #aaaa22; stroke-width: 1.5; stroke-linecap: square"/>
   </g>
   <g id="patch_5">
    <path d="M 186.264 307.584 
L 186.264 41.472 
" style="fill: none; stroke: #000000; stroke-width: 0.8; stroke-linejoin: miter; stroke-linecap: square"/>
   </g>
   <g id="patch_6">
    <path d="M 286.056 307.584 
L 286.056 41.472 
" style="fill: none; stroke: #000000; stroke-width: 0.8; stroke-linejoin: miter; stroke-linecap: square"/>
   </g>
   <g id="patch_7">
    <path d="M 186.264 307.584 
L 286.056 307.584 
" style="fill: none; stroke: #000000; stroke-width: 0.8; stroke-linejoin: miter; stroke-linecap: square"/>
   </g>
   <g id="patch_8">
    <path d="M 186.264 41.472 
L 286.056 41.472 
" style="fill: none; stroke: #000000; stroke-width: 0.8; stroke-linejoin: miter; stroke-linecap: square"/>
   </g>
   <g id="PathCollection_1">
    <defs>
     <path id="m83d0eb09bf" d="M 0 1.414214 
C 0.375054 1.414214 0.734797 1.265203 1 1 
C 1.265203 0.734797 1.414214 0.375054 1.414214 0 
C 1.414214 -0.375054 1.265203 -0.734797 1 -1 
C 0.734797 -1.265203 0.375054 -1.414214 0 -1.414214 
C -0.375054 -1.414214 -0.734797 -1.265203 -1 -1 
C -1.265203 -0.734797 -1.414214 -0.375054 -1.414214 0 
C -1.414214 0.375054 -1.265203 0.734797 -1 1 
C -0.734797 1.265203 -0.375054 1.414214 0 1.414214 
z
" style="stroke: #000000"/>
    </defs>
    <g clip-path="url(#p5c8e9cfdb5)">
     <use xlink:href="#m83d0eb09bf" x="206.008909" y="85.196207" style="stroke: #000000"/>
    </g>
   </g>
   <g id="PathCollection_2">
    <g clip-path="url(#p5c8e9cfdb5)">
     <use xlink:href="#m83d0eb09bf" x="189.626962" y="290.756618" style="stroke: #000000"/>
    </g>
   </g>
   <g id="PathCollection_3">
    <g clip-path="url(#p5c8e9cfdb5)"/>
   </g>
   <g id="PathCollection_4">
    <g clip-path="url(#p5c8e9cfdb5)">
     <use xlink:href="#m83d0eb09bf" x="202.868841" y="290.676343" style="stroke: #000000"/>
    </g>
   </g>
  </g>
 </g>
 <defs>
  <clipPath id="p5c8e9cfdb5">
   <rect x="186.264" y="41.472" width="99.792" height="266.112"/>
  </clipPath>
 </defs>
</svg>
