<?xml version="1.0" encoding="utf-8" standalone="no"?>
<!DOCTYPE svg PUBLIC "-//W3C//DTD SVG 1.1//EN"
  "http://www.w3.org/Graphics/SVG/1.1/DTD/svg11.dtd">
<svg xmlns:xlink="http://www.w3.org/1999/xlink" width="460.8pt" height="345.6pt" viewBox="0 0 460.8 345.6" xmlns="http://www.w3.org/2000/svg" version="1.1">
 <metadata>
  <rdf:RDF xmlns:dc="http://purl.org/dc/elements/1.1/" xmlns:cc="http://creativecommons.org/ns#" xmlns:rdf="http://www.w3.org/1999/02/22-rdf-syntax-ns#">
   <cc:Work>
    <dc:type rdf:resource="http://purl.org/dc/dcmitype/StillImage"/>
    <dc:date>2024-06-09T19:42:54.916276</dc:date>
    <dc:format>image/svg+xml</dc:format>
    <dc:creator>
     <cc:Agent>
      <dc:title>Matplotlib v3.8.2, https://matplotlib.org/</dc:title>
     </cc:Agent>
    </dc:creator>
   </cc:Work>
  </rdf:RDF>
 </metadata>
 <defs>
  <style type="text/css">*{stroke-linejoin: round; stroke-linecap: butt}</style>
 </defs>
 <g id="figure_1">
  <g id="patch_1">
   <path d="M 0 345.6 
L 460.8 345.6 
L 460.8 0 
L 0 0 
z
" style="fill: #ffffff"/>
  </g>
  <g id="axes_1">
   <g id="patch_2">
    <path d="M 186.264 307.584 
L 286.056 307.584 
L 286.056 41.472 
L 186.264 41.472 
z
" style="fill: #ffffff"/>
   </g>
   <g id="patch_3">
    <path d="M 186.264 157.896 
C 195.085716 157.896 203.547305 154.391095 209.7852 148.1532 
C 216.023095 141.915305 219.528 133.453716 219.528 124.632 
C 219.528 115.810284 216.023095 107.348695 209.7852 101.1108 
C 203.547305 94.872905 195.085716 91.368 186.264 91.368 
C 177.442284 91.368 168.980695 94.872905 162.7428 101.1108 
C 156.504905 107.348695 153 115.810284 153 124.632 
C 153 133.453716 156.504905 141.915305 162.7428 148.1532 
C 168.980695 154.391095 177.442284 157.896 186.264 157.896 
L 186.264 157.896 
z
" clip-path="url(#pdbc9888c9d)" style="fill: none; stroke: #222222; stroke-linejoin: miter"/>
   </g>
   <g id="patch_4">
    <path d="M 186.264 158.22864 
C 195.173933 158.22864 203.720138 154.688686 210.020412 148.388412 
C 216.320686 142.088138 219.86064 133.541933 219.86064 124.632 
C 219.86064 115.722067 216.320686 107.175862 210.020412 100.875588 
C 203.720138 94.575314 195.173933 91.03536 186.264 91.03536 
C 177.354067 91.03536 168.807862 94.575314 162.507588 100.875588 
C 156.207314 107.175862 152.66736 115.722067 152.66736 124.632 
C 152.66736 133.541933 156.207314 142.088138 162.507588 148.388412 
C 168.807862 154.688686 177.354067 158.22864 186.264 158.22864 
L 186.264 158.22864 
z
" clip-path="url(#pdbc9888c9d)" style="fill: none; stroke: #666666; stroke-linejoin: miter"/>
   </g>
   <g id="matplotlib.axis_1">
    <g id="xtick_1">
     <g id="line2d_1">
      <defs>
       <path id="mbda0fc1a95" d="M 0 0 
L 0 3.5 
" style="stroke: #000000; stroke-width: 0.8"/>
      </defs>
      <g>
       <use xlink:href="#mbda0fc1a95" x="186.264" y="307.584" style="stroke: #000000; stroke-width: 0.8"/>
      </g>
     </g>
     <g id="text_1">
      <!-- 0 -->
      <g transform="translate(183.08275 322.182437) scale(0.1 -0.1)">
       <defs>
        <path id="DejaVuSans-30" d="M 2034 4250 
Q 1547 4250 1301 3770 
Q 1056 3291 1056 2328 
Q 1056 1369 1301 889 
Q 1547 409 2034 409 
Q 2525 409 2770 889 
Q 3016 1369 3016 2328 
Q 3016 3291 2770 3770 
Q 2525 4250 2034 4250 
z
M 2034 4750 
Q 2819 4750 3233 4129 
Q 3647 3509 3647 2328 
Q 3647 1150 3233 529 
Q 2819 -91 2034 -91 
Q 1250 -91 836 529 
Q 422 1150 422 2328 
Q 422 3509 836 4129 
Q 1250 4750 2034 4750 
z
" transform="scale(0.015625)"/>
       </defs>
       <use xlink:href="#DejaVuSans-30"/>
      </g>
     </g>
    </g>
    <g id="xtick_2">
     <g id="line2d_2">
      <g>
       <use xlink:href="#mbda0fc1a95" x="219.528" y="307.584" style="stroke: #000000; stroke-width: 0.8"/>
      </g>
     </g>
     <g id="text_2">
      <!-- 1 -->
      <g transform="translate(216.34675 322.182437) scale(0.1 -0.1)">
       <defs>
        <path id="DejaVuSans-31" d="M 794 531 
L 1825 531 
L 1825 4091 
L 703 3866 
L 703 4441 
L 1819 4666 
L 2450 4666 
L 2450 531 
L 3481 531 
L 3481 0 
L 794 0 
L 794 531 
z
" transform="scale(0.015625)"/>
       </defs>
       <use xlink:href="#DejaVuSans-31"/>
      </g>
     </g>
    </g>
    <g id="xtick_3">
     <g id="line2d_3">
      <g>
       <use xlink:href="#mbda0fc1a95" x="252.792" y="307.584" style="stroke: #000000; stroke-width: 0.8"/>
      </g>
     </g>
     <g id="text_3">
      <!-- 2 -->
      <g transform="translate(249.61075 322.182437) scale(0.1 -0.1)">
       <defs>
        <path id="DejaVuSans-32" d="M 1228 531 
L 3431 531 
L 3431 0 
L 469 0 
L 469 531 
Q 828 903 1448 1529 
Q 2069 2156 2228 2338 
Q 2531 2678 2651 2914 
Q 2772 3150 2772 3378 
Q 2772 3750 2511 3984 
Q 2250 4219 1831 4219 
Q 1534 4219 1204 4116 
Q 875 4013 500 3803 
L 500 4441 
Q 881 4594 1212 4672 
Q 1544 4750 1819 4750 
Q 2544 4750 2975 4387 
Q 3406 4025 3406 3419 
Q 3406 3131 3298 2873 
Q 3191 2616 2906 2266 
Q 2828 2175 2409 1742 
Q 1991 1309 1228 531 
z
" transform="scale(0.015625)"/>
       </defs>
       <use xlink:href="#DejaVuSans-32"/>
      </g>
     </g>
    </g>
    <g id="xtick_4">
     <g id="line2d_4">
      <g>
       <use xlink:href="#mbda0fc1a95" x="286.056" y="307.584" style="stroke: #000000; stroke-width: 0.8"/>
      </g>
     </g>
     <g id="text_4">
      <!-- 3 -->
      <g transform="translate(282.87475 322.182437) scale(0.1 -0.1)">
       <defs>
        <path id="DejaVuSans-33" d="M 2597 2516 
Q 3050 2419 3304 2112 
Q 3559 1806 3559 1356 
Q 3559 666 3084 287 
Q 2609 -91 1734 -91 
Q 1441 -91 1130 -33 
Q 819 25 488 141 
L 488 750 
Q 750 597 1062 519 
Q 1375 441 1716 441 
Q 2309 441 2620 675 
Q 2931 909 2931 1356 
Q 2931 1769 2642 2001 
Q 2353 2234 1838 2234 
L 1294 2234 
L 1294 2753 
L 1863 2753 
Q 2328 2753 2575 2939 
Q 2822 3125 2822 3475 
Q 2822 3834 2567 4026 
Q 2313 4219 1838 4219 
Q 1578 4219 1281 4162 
Q 984 4106 628 3988 
L 628 4550 
Q 988 4650 1302 4700 
Q 1616 4750 1894 4750 
Q 2613 4750 3031 4423 
Q 3450 4097 3450 3541 
Q 3450 3153 3228 2886 
Q 3006 2619 2597 2516 
z
" transform="scale(0.015625)"/>
       </defs>
       <use xlink:href="#DejaVuSans-33"/>
      </g>
     </g>
    </g>
   </g>
   <g id="matplotlib.axis_2">
    <g id="ytick_1">
     <g id="line2d_5">
      <defs>
       <path id="md74e242237" d="M 0 0 
L -3.5 0 
" style="stroke: #000000; stroke-width: 0.8"/>
      </defs>
      <g>
       <use xlink:href="#md74e242237" x="186.264" y="290.952" style="stroke: #000000; stroke-width: 0.8"/>
      </g>
     </g>
     <g id="text_5">
      <!-- −5 -->
      <g transform="translate(164.521813 294.751219) scale(0.1 -0.1)">
       <defs>
        <path id="DejaVuSans-2212" d="M 678 2272 
L 4684 2272 
L 4684 1741 
L 678 1741 
L 678 2272 
z
" transform="scale(0.015625)"/>
        <path id="DejaVuSans-35" d="M 691 4666 
L 3169 4666 
L 3169 4134 
L 1269 4134 
L 1269 2991 
Q 1406 3038 1543 3061 
Q 1681 3084 1819 3084 
Q 2600 3084 3056 2656 
Q 3513 2228 3513 1497 
Q 3513 744 3044 326 
Q 2575 -91 1722 -91 
Q 1428 -91 1123 -41 
Q 819 9 494 109 
L 494 744 
Q 775 591 1075 516 
Q 1375 441 1709 441 
Q 2250 441 2565 725 
Q 2881 1009 2881 1497 
Q 2881 1984 2565 2268 
Q 2250 2553 1709 2553 
Q 1456 2553 1204 2497 
Q 953 2441 691 2322 
L 691 4666 
z
" transform="scale(0.015625)"/>
       </defs>
       <use xlink:href="#DejaVuSans-2212"/>
       <use xlink:href="#DejaVuSans-35" x="83.789062"/>
      </g>
     </g>
    </g>
    <g id="ytick_2">
     <g id="line2d_6">
      <g>
       <use xlink:href="#md74e242237" x="186.264" y="257.688" style="stroke: #000000; stroke-width: 0.8"/>
      </g>
     </g>
     <g id="text_6">
      <!-- −4 -->
      <g transform="translate(164.521813 261.487219) scale(0.1 -0.1)">
       <defs>
        <path id="DejaVuSans-34" d="M 2419 4116 
L 825 1625 
L 2419 1625 
L 2419 4116 
z
M 2253 4666 
L 3047 4666 
L 3047 1625 
L 3713 1625 
L 3713 1100 
L 3047 1100 
L 3047 0 
L 2419 0 
L 2419 1100 
L 313 1100 
L 313 1709 
L 2253 4666 
z
" transform="scale(0.015625)"/>
       </defs>
       <use xlink:href="#DejaVuSans-2212"/>
       <use xlink:href="#DejaVuSans-34" x="83.789062"/>
      </g>
     </g>
    </g>
    <g id="ytick_3">
     <g id="line2d_7">
      <g>
       <use xlink:href="#md74e242237" x="186.264" y="224.424" style="stroke: #000000; stroke-width: 0.8"/>
      </g>
     </g>
     <g id="text_7">
      <!-- −3 -->
      <g transform="translate(164.521813 228.223219) scale(0.1 -0.1)">
       <use xlink:href="#DejaVuSans-2212"/>
       <use xlink:href="#DejaVuSans-33" x="83.789062"/>
      </g>
     </g>
    </g>
    <g id="ytick_4">
     <g id="line2d_8">
      <g>
       <use xlink:href="#md74e242237" x="186.264" y="191.16" style="stroke: #000000; stroke-width: 0.8"/>
      </g>
     </g>
     <g id="text_8">
      <!-- −2 -->
      <g transform="translate(164.521813 194.959219) scale(0.1 -0.1)">
       <use xlink:href="#DejaVuSans-2212"/>
       <use xlink:href="#DejaVuSans-32" x="83.789062"/>
      </g>
     </g>
    </g>
    <g id="ytick_5">
     <g id="line2d_9">
      <g>
       <use xlink:href="#md74e242237" x="186.264" y="157.896" style="stroke: #000000; stroke-width: 0.8"/>
      </g>
     </g>
     <g id="text_9">
      <!-- −1 -->
      <g transform="translate(164.521813 161.695219) scale(0.1 -0.1)">
       <use xlink:href="#DejaVuSans-2212"/>
       <use xlink:href="#DejaVuSans-31" x="83.789062"/>
      </g>
     </g>
    </g>
    <g id="ytick_6">
     <g id="line2d_10">
      <g>
       <use xlink:href="#md74e242237" x="186.264" y="124.632" style="stroke: #000000; stroke-width: 0.8"/>
      </g>
     </g>
     <g id="text_10">
      <!-- 0 -->
      <g transform="translate(172.9015 128.431219) scale(0.1 -0.1)">
       <use xlink:href="#DejaVuSans-30"/>
      </g>
     </g>
    </g>
    <g id="ytick_7">
     <g id="line2d_11">
      <g>
       <use xlink:href="#md74e242237" x="186.264" y="91.368" style="stroke: #000000; stroke-width: 0.8"/>
      </g>
     </g>
     <g id="text_11">
      <!-- 1 -->
      <g transform="translate(172.9015 95.167219) scale(0.1 -0.1)">
       <use xlink:href="#DejaVuSans-31"/>
      </g>
     </g>
    </g>
    <g id="ytick_8">
     <g id="line2d_12">
      <g>
       <use xlink:href="#md74e242237" x="186.264" y="58.104" style="stroke: #000000; stroke-width: 0.8"/>
      </g>
     </g>
     <g id="text_12">
      <!-- 2 -->
      <g transform="translate(172.9015 61.903219) scale(0.1 -0.1)">
       <use xlink:href="#DejaVuSans-32"/>
      </g>
     </g>
    </g>
   </g>
   <g id="line2d_13">
    <path d="M 189.696835 290.832817 
L 190.000281 290.582918 
L 190.051409 289.788717 
L 190.440692 289.818283 
L 190.419734 289.614462 
L 190.223945 289.263732 
L 190.065232 289.000891 
L 190.288996 288.800894 
L 190.510534 288.306665 
L 190.208873 288.278685 
L 190.177013 287.702135 
L 189.978602 287.513034 
L 190.105 287.014316 
L 190.272937 286.76188 
L 190.244439 286.347752 
L 190.073053 285.864769 
L 190.20633 285.748552 
L 190.222621 284.951003 
L 190.078832 284.759032 
L 189.854544 284.272908 
L 190.127696 283.998393 
L 190.240509 283.025781 
L 190.065848 282.98527 
L 190.272796 283.143521 
L 190.067414 282.248313 
L 190.480475 281.366032 
L 190.397801 281.348759 
L 190.257636 281.304045 
L 190.430379 281.256191 
L 190.63788 280.798079 
L 190.47449 280.513111 
L 190.650043 280.675914 
L 190.948701 280.69417 
L 190.908395 280.11762 
L 190.742905 279.752615 
L 190.614035 279.76743 
L 190.715616 279.462429 
L 190.385449 279.41191 
L 190.516755 279.081166 
L 190.487419 278.651271 
L 190.237796 278.390698 
L 190.325498 278.43906 
L 190.209458 277.968528 
L 190.217305 277.430712 
L 190.109729 277.274508 
L 190.271594 277.120175 
L 189.98024 276.970459 
L 189.864683 276.352748 
L 190.030926 275.73426 
L 189.595265 274.733224 
L 189.046087 274.261883 
L 189.563638 272.818486 
L 189.894454 272.56716 
L 189.659262 272.135473 
L 189.233953 271.732575 
L 189.11245 271.141591 
L 188.675637 270.78412 
L 189.020313 270.709682 
L 188.954818 270.133275 
L 188.327958 270.185475 
L 188.343027 269.834793 
L 188.224436 269.870291 
L 188.300328 269.376982 
L 188.091215 269.265492 
L 188.143034 269.005363 
L 188.137877 268.363495 
L 187.91914 268.159817 
L 187.678408 267.313066 
L 187.992931 266.637398 
L 188.082916 266.332746 
L 188.518253 265.791313 
L 188.488792 265.670559 
L 188.888983 265.705074 
L 188.755313 264.910539 
L 189.082744 265.094818 
L 189.089439 264.622891 
L 189.014121 264.347868 
L 188.885173 263.892373 
L 188.693075 263.622553 
L 188.645764 263.176083 
L 188.7753 263.153623 
L 188.748549 262.651733 
L 188.560203 262.553328 
L 188.921433 262.368938 
L 188.74896 261.891665 
L 188.829841 261.302172 
L 188.52071 261.177485 
L 188.744217 260.822599 
L 188.914834 261.063694 
L 189.683617 260.468174 
L 189.619444 260.295934 
L 189.362469 260.242956 
L 188.931109 259.724444 
L 189.072739 259.70671 
L 189.31829 259.25553 
L 189.190703 258.530754 
L 189.643277 258.468656 
L 189.510717 257.987481 
L 189.614821 257.654041 
L 189.421329 257.234979 
L 189.217564 257.180083 
L 188.803629 256.741401 
L 188.772825 256.124079 
L 188.869223 255.638471 
L 189.081673 255.142632 
L 188.821078 254.671569 
L 189.221636 254.529212 
L 189.61298 253.575332 
L 190.407912 253.241075 
L 190.443764 253.025081 
L 190.310053 252.738899 
L 190.123688 252.689395 
L 190.085487 252.426887 
L 190.037635 252.476574 
L 189.898437 252.202185 
L 189.925345 251.824626 
L 189.824662 251.609575 
L 189.920345 251.53547 
L 189.663351 251.493731 
L 189.274123 251.164319 
L 189.306659 251.238916 
L 189.096166 250.867265 
L 188.931044 250.631333 
L 189.007961 250.361861 
L 189.390216 250.205752 
L 189.457535 249.89313 
L 189.100955 249.788841 
L 188.964024 249.135394 
L 188.329889 248.252019 
L 188.266285 248.512639 
L 188.390245 248.434236 
L 188.64571 247.994927 
L 188.623091 248.014469 
L 188.295827 247.888148 
L 188.41167 247.55408 
L 188.018626 247.204041 
L 188.440902 246.944126 
L 188.227432 246.655613 
L 188.117984 246.187849 
L 188.037549 246.37101 
L 187.875522 246.245522 
L 188.150932 245.510975 
L 188.107806 245.116642 
L 187.657325 244.632168 
L 187.998614 244.512866 
L 187.832138 244.142111 
L 188.038146 244.017225 
L 188.198722 243.709544 
L 188.318148 243.577615 
L 188.056103 243.250837 
L 187.870017 243.399657 
L 187.724729 243.225292 
L 188.116806 243.115554 
L 188.043269 242.912796 
L 188.120132 242.695612 
L 187.985921 242.448268 
L 188.629251 241.170227 
L 188.869933 241.111864 
L 188.935197 240.663467 
L 189.129877 240.625185 
L 189.426426 240.74613 
L 189.584975 240.417265 
L 189.11473 239.831705 
L 189.446432 239.810316 
L 189.013877 239.825567 
L 189.275446 239.195112 
L 189.310247 238.998778 
L 189.752921 238.957229 
L 189.553669 238.916036 
L 189.627622 238.684918 
L 189.355072 238.643266 
L 189.214035 238.197454 
L 188.898765 238.313521 
L 188.728825 238.006387 
L 188.797192 238.129012 
L 188.716489 236.673583 
L 188.01776 236.28753 
L 187.960495 236.495704 
L 187.96465 236.344409 
L 187.880028 236.184026 
L 187.724948 236.199982 
L 187.762178 235.972505 
L 187.637809 235.728539 
L 187.842266 235.371782 
L 188.010656 235.433626 
L 187.895753 235.388389 
L 188.225397 235.115317 
L 188.120267 234.884072 
L 187.949737 234.851365 
L 187.850066 234.025909 
L 187.915046 233.902569 
L 187.76746 233.266975 
L 187.437062 232.896958 
L 187.293589 232.945153 
L 187.335719 232.974552 
L 187.305384 232.74115 
L 187.580001 232.615654 
L 187.678849 232.366414 
L 187.617039 232.209226 
L 187.21541 231.495974 
L 187.197105 230.532078 
L 186.9178 230.351407 
L 187.065733 229.973055 
L 186.691471 228.705371 
L 186.608164 228.31724 
L 186.672516 228.332015 
L 186.891334 227.122971 
L 186.76796 226.787825 
L 186.911203 226.531003 
L 186.734061 226.625609 
L 186.871991 226.263333 
L 187.070201 226.283033 
L 186.941488 225.774116 
L 187.070695 225.495794 
L 187.328134 225.229503 
L 187.19827 225.143906 
L 186.891164 224.754831 
L 187.103955 224.800941 
L 187.14341 224.065125 
L 186.938763 224.107024 
L 187.069063 223.992654 
L 187.132425 223.819216 
L 186.911828 223.653773 
L 187.186842 223.278791 
L 187.150701 222.658376 
L 187.507128 222.95635 
L 187.47119 222.571098 
L 187.93919 222.110472 
L 187.950415 221.825179 
L 188.107606 221.568373 
L 188.137444 220.415257 
L 187.695295 220.773116 
L 187.512166 220.456679 
L 187.785396 220.782054 
L 188.042443 220.554299 
L 187.627485 220.161631 
L 187.81897 220.152479 
L 187.65362 219.963235 
L 187.676184 219.628272 
L 187.499483 219.688173 
L 187.641165 219.505488 
L 187.573919 219.275433 
L 187.67626 219.001608 
L 187.566122 218.508814 
L 187.445392 218.265911 
L 187.647832 218.205915 
L 187.609354 218.049465 
L 187.757114 217.735256 
L 188.370773 217.472939 
L 188.640463 217.674832 
L 189.011774 217.53215 
L 188.694863 217.437512 
L 188.649625 217.272068 
L 188.525921 217.415869 
L 188.235413 217.238204 
L 188.09618 217.321398 
L 187.785141 216.842039 
L 187.880864 216.452433 
L 187.96285 216.515926 
L 188.14102 216.372665 
L 187.937344 216.252284 
L 187.765026 215.826641 
L 188.033455 215.675028 
L 187.939676 215.325234 
L 188.075581 214.870445 
L 187.62914 214.615733 
L 187.699108 214.592258 
L 187.791434 214.552493 
L 187.848643 214.286432 
L 187.629489 214.019848 
L 187.823933 213.873605 
L 188.356087 213.01583 
L 188.185301 212.878588 
L 188.152705 212.980967 
L 188.25749 212.792452 
L 188.478514 212.614986 
L 188.449972 212.668344 
L 188.585368 212.758572 
L 188.68096 212.607388 
L 188.598173 212.307439 
L 188.871115 212.265049 
L 188.539767 211.686239 
L 188.768831 211.784913 
L 188.884419 211.29032 
L 188.441728 211.302882 
L 188.385376 210.894861 
L 188.723899 210.570627 
L 188.865681 210.704586 
L 188.836837 210.832723 
L 188.377764 210.740782 
L 188.617761 210.450905 
L 188.811168 209.926119 
L 188.59356 209.793453 
L 188.444611 209.29947 
L 188.874235 208.442742 
L 189.074876 208.672496 
L 189.08759 208.439316 
L 188.947893 208.392239 
L 189.009947 208.496624 
L 188.875948 208.179116 
L 189.224116 208.036418 
L 189.031628 208.093361 
L 188.94573 207.614771 
L 188.640874 207.255492 
L 188.166928 207.098638 
L 188.365575 206.979113 
L 188.372869 207.187581 
L 188.457297 206.54561 
L 188.270274 206.690053 
L 187.97205 206.938897 
L 187.569796 206.817001 
L 187.524562 206.495337 
L 187.722815 206.236763 
L 187.829253 206.414523 
L 187.753315 206.228333 
L 188.013504 205.125101 
L 187.80608 204.256842 
L 188.012813 204.414212 
L 188.045303 204.08246 
L 188.2717 204.122281 
L 188.487345 203.677199 
L 188.197801 203.197793 
L 187.712392 203.161271 
L 187.671459 202.677924 
L 187.36968 202.223372 
L 187.724142 202.001343 
L 188.227383 202.275089 
L 188.613368 201.512658 
L 188.402537 201.623474 
L 188.282313 200.994399 
L 188.407548 201.107404 
L 188.536744 201.068305 
L 188.925878 200.049996 
L 188.403817 200.140367 
L 188.437064 199.804198 
L 188.305318 199.701019 
L 188.071944 199.764465 
L 188.11918 199.518564 
L 188.156026 199.261449 
L 188.281854 199.369236 
L 188.208149 199.555585 
L 188.3136 199.003922 
L 188.333065 198.821197 
L 188.901497 198.813116 
L 188.892562 198.401692 
L 188.497061 198.431305 
L 188.525019 198.125242 
L 188.399208 198.163531 
L 188.538258 198.20033 
L 188.396259 197.861092 
L 188.640661 197.380107 
L 188.71885 197.438478 
L 188.775284 197.621551 
L 188.977104 197.281282 
L 188.888113 196.997203 
L 189.154599 197.030639 
L 189.162002 196.851998 
L 188.811727 196.702861 
L 189.223092 196.856345 
L 188.994387 196.728065 
L 188.669584 196.365288 
L 188.615902 196.225128 
L 188.366521 196.211376 
L 188.407997 196.149088 
L 188.632045 194.588712 
L 188.707814 194.113984 
L 188.910113 193.888862 
L 188.788182 193.757148 
L 188.492342 193.717114 
L 188.575813 193.685208 
L 188.644074 193.455066 
L 188.707511 193.665548 
L 188.567565 193.548347 
L 188.686229 192.401814 
L 188.940615 192.458891 
L 189.109106 192.234824 
L 189.037534 192.192687 
L 189.069383 191.873459 
L 189.205766 191.742466 
L 189.136811 191.234581 
L 189.387138 191.144769 
L 189.292188 191.156118 
L 189.230579 191.046233 
L 189.239154 191.154341 
L 188.848614 191.447863 
L 189.014859 191.518423 
L 189.299666 191.41453 
L 189.806045 190.959138 
L 189.655836 190.760052 
L 189.072677 190.526539 
L 188.904112 191.16088 
L 188.776032 191.077005 
L 188.990286 190.629417 
L 188.917923 190.764267 
L 188.389113 190.578684 
L 188.569624 190.40939 
L 188.600582 190.883804 
L 188.692117 190.772531 
L 188.819961 190.487603 
L 188.903112 189.959089 
L 189.341022 189.860256 
L 189.560164 189.502766 
L 189.875076 189.443939 
L 189.694146 189.364977 
L 189.774892 189.344372 
L 189.817122 189.10043 
L 190.103043 188.996942 
L 189.909295 188.94954 
L 189.89244 188.75819 
L 189.945404 188.618375 
L 189.873876 188.307973 
L 189.991271 188.060899 
L 190.02204 187.840241 
L 189.963131 187.9192 
L 190.261632 187.731856 
L 190.168086 187.693467 
L 190.017995 187.333323 
L 189.91736 187.514719 
L 189.729109 187.214469 
L 189.848449 186.873764 
L 189.942349 186.917284 
L 190.151109 186.836442 
L 190.15219 186.628394 
L 189.970838 185.915883 
L 189.931754 186.228394 
L 189.993192 186.081457 
L 190.167405 186.204015 
L 190.30756 186.015989 
L 190.397239 185.674618 
L 190.368544 185.68323 
L 190.694308 185.725493 
L 190.702418 185.561592 
L 190.479689 185.026909 
L 190.436312 184.531038 
L 190.641253 184.377923 
L 190.486729 183.955634 
L 190.519522 184.074108 
L 190.405591 184.231367 
L 190.621228 184.160442 
L 190.543653 184.106223 
L 190.703203 184.40574 
L 190.755525 184.086698 
L 190.430725 183.889971 
L 190.343676 183.639732 
L 190.71965 183.386587 
L 191.082651 183.468119 
L 191.265766 183.814288 
L 191.185641 183.788466 
L 190.842739 183.97236 
L 190.784158 183.672732 
L 190.897197 183.762528 
L 190.96853 183.61088 
L 191.118274 183.625988 
L 190.899337 183.292226 
L 190.896412 182.89235 
L 191.196068 183.148474 
L 191.036044 183.208846 
L 190.85027 183.038811 
L 190.592155 182.9828 
L 190.679655 182.696524 
L 190.850635 182.460849 
L 190.776306 182.113078 
L 191.023368 181.555962 
L 191.36626 181.445756 
L 191.02108 181.470897 
L 190.513785 181.344976 
L 190.342596 181.613357 
L 190.06794 181.726731 
L 190.320314 181.657162 
L 190.538202 181.40044 
L 190.412129 181.427063 
L 190.234727 181.342831 
L 190.368715 181.362626 
L 190.123938 181.577201 
L 190.5528 181.116555 
L 190.476574 181.087445 
L 190.258347 181.283989 
L 190.237565 180.595258 
L 189.918403 180.695071 
L 190.255225 180.559478 
L 190.464277 180.244393 
L 190.365136 180.384348 
L 189.933632 180.022174 
L 190.091065 179.945995 
L 189.980647 179.74767 
L 189.833423 178.971781 
L 189.764164 179.083156 
L 189.497685 178.940791 
L 189.88222 178.812737 
L 189.737718 178.625504 
L 189.731574 178.321368 
L 189.503195 178.434187 
L 189.667801 178.200154 
L 189.38786 178.098565 
L 189.338623 177.905645 
L 188.791149 177.803497 
L 188.96098 177.808498 
L 188.717267 177.432818 
L 188.886568 177.543932 
L 188.931868 177.273909 
L 189.038613 177.455397 
L 188.895762 177.683144 
L 189.344758 176.516982 
L 189.320623 176.546389 
L 188.949551 176.273349 
L 188.964809 176.075953 
L 189.232294 175.51432 
L 189.100964 175.458369 
L 189.147458 175.115213 
L 189.112554 174.974843 
L 188.872595 174.959163 
L 189.16565 174.777053 
L 189.199801 174.548997 
L 189.045709 174.357053 
L 189.145415 174.322213 
L 189.1102 173.996552 
L 189.048238 174.031372 
L 188.930582 173.687023 
L 188.715583 173.511705 
L 188.823544 173.527103 
L 189.025068 173.385142 
L 188.886984 173.552303 
L 189.171353 173.585271 
L 188.955709 173.465108 
L 189.021227 173.403776 
L 188.973423 173.543504 
L 189.081199 173.554234 
L 189.062633 173.617311 
L 188.99758 173.716359 
L 188.898429 173.580703 
L 189.507194 173.695318 
L 189.165116 173.766659 
L 189.312799 173.646401 
L 189.416909 173.530188 
L 189.265491 173.376129 
L 189.367551 173.280405 
L 189.775325 173.229192 
L 189.724788 173.118633 
L 189.902074 173.090991 
L 189.766145 173.230116 
L 189.583101 173.213735 
L 189.817763 173.544721 
L 189.744776 173.261807 
L 189.852135 173.375681 
L 189.773034 173.101991 
L 189.538974 173.294581 
L 189.231753 172.234481 
L 189.284503 171.989314 
L 189.474577 171.959125 
L 189.899495 172.435097 
L 190.055174 172.170579 
L 190.082579 172.342074 
L 190.107427 172.31953 
L 189.8494 172.375022 
L 189.683191 172.57841 
L 189.893923 172.320867 
L 189.825906 172.219278 
L 190.12943 171.769235 
L 190.037906 171.141631 
L 189.901408 171.545651 
L 190.079616 171.340657 
L 190.309796 171.4292 
L 190.123282 171.344559 
L 189.812277 171.380632 
L 189.836437 171.416257 
L 189.72728 171.965252 
L 189.619433 171.929861 
L 189.828112 172.329242 
L 190.136983 172.29872 
L 189.767757 172.106566 
L 190.100424 172.278386 
L 190.999632 172.114425 
L 191.020276 172.208766 
L 190.820762 172.066793 
L 190.984997 172.350996 
L 191.181021 172.357416 
L 191.722666 172.794507 
L 191.794324 172.298728 
L 192.082875 172.26053 
L 192.018015 172.386736 
L 192.106243 172.58688 
L 192.451486 172.072424 
L 192.131833 171.702216 
L 192.486607 171.134874 
L 192.260192 170.86229 
L 192.166976 170.065661 
L 192.41295 170.051255 
L 191.946175 170.702255 
L 191.753643 170.408306 
L 191.752348 170.01582 
L 191.747583 170.038784 
L 191.876523 170.065935 
L 191.739505 169.861531 
L 191.769435 169.863145 
L 191.369863 169.873075 
L 191.426135 169.73316 
L 191.260539 169.712846 
L 191.019286 170.102404 
L 191.076408 169.952331 
L 191.314078 170.163634 
L 191.063924 169.775586 
L 190.637406 169.981322 
L 190.568064 170.342199 
L 190.82662 170.077645 
L 190.705075 169.908486 
L 190.715839 170.141626 
L 191.474062 169.309182 
L 191.366772 169.158216 
L 191.0269 169.51125 
L 191.319505 169.491994 
L 191.158141 169.618529 
L 191.031244 169.529126 
L 191.28253 169.674746 
L 191.743618 169.077719 
L 191.673289 169.193576 
L 191.442163 168.925683 
L 190.645255 169.232083 
L 190.955418 169.19168 
L 190.797299 169.836871 
L 190.837919 169.552684 
L 190.652443 169.300006 
L 190.519744 169.360879 
L 190.608824 168.945339 
L 190.48316 168.941504 
L 190.412278 168.617069 
L 190.504811 168.618869 
L 190.545636 168.421092 
L 190.777245 168.214512 
L 190.450078 168.315621 
L 190.289663 168.775989 
L 190.131299 168.703146 
L 189.810516 168.821334 
L 189.714817 169.188139 
L 189.954035 168.9553 
L 190.0119 169.06457 
L 189.913748 169.183436 
L 189.889367 169.327637 
L 189.822379 169.044695 
L 189.860237 169.494341 
L 189.667717 169.405541 
L 189.72324 169.186628 
L 189.759685 169.437121 
L 189.771346 169.394672 
L 190.045676 169.403407 
L 189.838146 169.120696 
L 190.049254 168.987983 
L 189.899981 169.12072 
L 190.114094 169.109006 
L 190.191387 168.967279 
L 190.619712 169.12551 
L 190.802493 168.780173 
L 191.073898 168.739036 
L 190.782167 168.863612 
L 190.423952 168.681752 
L 190.179369 168.893694 
L 190.401208 168.853072 
L 190.11703 168.857081 
L 190.312243 168.68082 
L 190.403414 169.012925 
L 190.465772 168.988661 
L 190.601992 168.834701 
L 191.111393 168.715133 
L 191.666991 168.26898 
L 191.698428 168.539689 
L 191.737052 168.101467 
L 191.781456 168.074157 
L 191.696847 168.068864 
L 191.666708 167.837829 
L 191.839951 167.836925 
L 191.951765 167.44072 
L 192.715842 166.980189 
L 193.09876 167.018514 
L 192.899784 167.356896 
L 193.085306 167.219012 
L 193.351231 167.223643 
L 193.514334 167.707836 
L 193.569872 167.262012 
L 193.710114 167.370703 
L 193.865931 167.271228 
L 194.250086 167.432746 
L 194.359066 166.811339 
L 194.434725 166.994583 
L 194.283566 166.812287 
L 194.341083 166.463524 
L 194.511886 166.589385 
L 194.244954 166.532981 
L 194.217763 166.672313 
L 194.303963 166.208491 
L 194.596234 166.216719 
L 194.329692 166.202634 
L 194.379093 166.025052 
L 194.268285 165.960385 
L 194.269633 165.964469 
L 194.192631 166.212634 
L 194.325756 166.083569 
L 193.764841 166.159062 
L 194.053424 166.362379 
L 194.691303 165.833977 
L 194.712505 166.028574 
L 194.477636 165.614679 
L 194.72425 165.352401 
L 194.744973 165.607165 
L 194.724944 165.235938 
L 195.072604 165.003289 
L 195.034503 164.98052 
L 195.059135 164.409387 
L 194.950193 164.504009 
L 194.964405 164.430768 
L 194.852716 164.414066 
L 194.960224 164.437489 
L 194.61033 164.202751 
L 194.697538 164.359859 
L 195.069954 164.230199 
L 195.286838 164.360874 
L 195.56886 163.927332 
L 195.678941 164.033072 
L 195.711455 163.906759 
L 195.59332 163.939494 
L 195.950327 164.027779 
L 196.217553 163.915412 
L 196.071843 163.872974 
L 195.90079 163.709664 
L 195.933252 163.787247 
L 195.672316 163.935294 
L 195.708714 164.219739 
L 195.681165 164.141906 
L 195.531326 164.912625 
L 195.844289 165.006033 
L 195.99205 164.858176 
L 196.038586 164.927444 
L 196.037685 165.128127 
L 195.967667 165.102158 
L 196.184011 165.091737 
L 196.221848 164.827873 
L 195.959218 164.59599 
L 196.223741 164.243765 
L 196.572449 164.605828 
L 196.796518 164.57481 
L 197.003466 164.756627 
L 196.975395 164.656481 
L 196.953229 164.881667 
L 197.168552 164.990346 
L 197.163942 164.692975 
L 197.092597 164.851772 
L 197.323668 165.085547 
L 197.072205 165.463586 
L 197.161542 165.336956 
L 197.256408 165.641965 
L 197.738999 165.607601 
L 197.898553 165.758321 
L 198.196257 165.70505 
L 197.980256 165.725991 
L 197.23055 165.138311 
L 197.243961 164.844341 
L 197.095016 165.123083 
L 197.541636 164.930866 
L 197.801773 164.846669 
L 197.708695 165.155941 
L 197.596066 164.931461 
L 197.804293 164.95356 
L 198.075523 164.774919 
L 198.393359 164.82618 
L 198.281689 164.87581 
L 198.499608 165.055387 
L 198.55962 164.728965 
L 198.43496 164.488627 
L 198.489698 164.510369 
L 198.897641 164.564096 
L 198.919304 164.924953 
L 199.207645 164.78996 
L 199.637778 165.079488 
L 199.501925 164.812075 
L 199.713485 164.736098 
L 199.604563 164.581028 
L 199.783632 164.286563 
L 200.083221 163.347855 
L 199.821064 163.214741 
L 199.956788 163.416028 
L 199.838741 163.624436 
L 199.963948 163.704319 
L 199.89369 163.83336 
L 199.787417 163.692121 
L 199.638474 163.850205 
L 199.326686 163.825996 
L 199.093637 163.69412 
L 199.315851 163.520797 
L 199.586299 163.687478 
L 199.502474 163.543761 
L 199.820891 163.417574 
L 199.759152 163.359426 
L 200.219752 163.735336 
L 200.380818 163.466971 
L 200.728598 163.480787 
L 200.708271 163.614289 
L 200.971252 163.354481 
L 200.929638 163.63153 
L 200.672292 163.121662 
L 200.668502 163.380276 
L 200.29822 163.696186 
L 200.205966 163.55373 
L 200.303409 163.411147 
L 199.893799 163.041922 
L 199.772342 163.266656 
L 199.960467 163.352392 
L 200.241521 163.32005 
L 200.273073 163.199725 
L 200.030791 163.073626 
L 199.681147 162.687132 
L 199.749405 162.825762 
L 199.556269 163.114068 
L 199.430137 163.008776 
L 200.14329 163.036803 
L 200.299459 163.389167 
L 200.404327 163.308804 
L 200.059844 163.43409 
L 200.206243 163.644925 
L 200.17425 163.890208 
L 200.150596 163.825929 
L 200.011372 163.553523 
L 200.04567 163.485993 
L 199.993416 163.158988 
L 200.31044 163.099611 
L 199.95889 163.187 
L 200.2504 163.11552 
L 200.501985 163.416615 
L 200.626622 163.193241 
L 200.545053 163.031196 
L 200.784957 163.207302 
L 200.670917 162.472744 
L 200.927303 162.223916 
L 200.947422 162.637069 
L 201.0674 162.247736 
L 200.934225 161.696018 
L 200.996395 161.766189 
L 201.178408 161.87233 
L 201.50182 161.647652 
L 201.810123 161.73955 
L 201.889162 161.59402 
L 201.614785 161.154184 
L 201.794787 161.159649 
L 202.227484 161.379477 
L 202.207473 161.660813 
L 202.404569 161.31065 
L 202.409279 161.171025 
L 202.563999 161.221513 
L 202.087787 161.104562 
L 202.361496 161.198989 
L 202.404855 161.288666 
L 202.702221 161.51361 
L 202.886948 161.2541 
L 202.942825 161.379116 
L 203.119792 161.162539 
L 202.951091 161.49048 
L 203.03394 161.257879 
L 203.192682 161.380627 
L 203.050719 161.475598 
L 203.298869 161.285018 
L 203.234869 161.594896 
L 203.16404 161.107706 
L 203.215512 161.275469 
L 203.401372 161.239444 
L 203.281048 161.081689 
L 202.769478 161.190947 
L 202.752376 161.003718 
L 202.962721 160.842232 
L 202.662743 160.650641 
L 203.024167 160.852197 
L 202.92096 161.443637 
L 202.995735 161.451259 
L 203.143505 161.578099 
L 203.400335 161.357128 
L 203.711333 161.305226 
L 203.747283 161.171501 
L 203.974634 161.356692 
L 203.835868 161.241193 
L 203.889063 161.143319 
L 203.638951 160.814895 
L 203.985176 160.798419 
L 204.004277 160.302957 
L 204.279215 160.138453 
L 203.970368 159.99244 
L 204.169995 160.175109 
L 204.203143 160.3887 
L 204.042468 160.124499 
L 204.304821 160.18921 
L 204.122004 160.103756 
L 203.77471 160.298959 
L 202.79538 161.064971 
L 202.342687 161.176046 
L 202.416859 161.185063 
L 202.380888 161.292449 
L 202.403661 161.067838 
L 202.314183 161.240955 
L 202.166594 161.011177 
L 202.187238 161.13914 
L 202.084074 161.190686 
L 202.18419 161.152245 
L 202.293949 161.308838 
L 201.955544 161.596867 
L 202.311265 161.234983 
L 202.141926 160.916912 
L 202.265715 160.747202 
L 202.533163 160.914473 
L 202.638429 160.460311 
L 202.713641 160.60375 
L 202.890282 160.909291 
L 202.721981 160.48174 
L 202.774073 160.323382 
L 202.639986 160.443295 
L 202.573718 160.576766 
L 202.64087 160.404791 
L 202.629325 160.086895 
L 202.380661 160.227428 
L 202.406301 160.223391 
L 202.472835 160.011926 
L 202.261091 160.109668 
L 202.04914 159.960939 
L 202.060921 159.738521 
L 202.21171 159.438334 
L 202.622097 159.560951 
L 202.67764 159.800484 
L 202.65779 159.623671 
L 202.252656 159.810865 
L 202.243377 159.524902 
L 202.482353 159.367437 
L 202.678128 159.428682 
L 202.522857 159.127884 
L 202.619723 158.948907 
L 202.49702 158.876317 
L 202.240403 159.284731 
L 201.98239 159.115465 
L 202.304619 158.778689 
L 202.419414 159.018277 
L 202.132741 158.808255 
L 202.113373 159.194653 
L 202.346557 159.048819 
L 202.409617 158.789733 
L 202.259242 158.715299 
L 202.532272 158.707899 
L 202.437979 158.247245 
L 202.598338 158.112506 
L 202.390549 158.226268 
L 202.510457 158.42397 
L 202.458519 158.382425 
L 202.179574 158.078491 
L 202.96474 157.631957 
L 203.217856 157.603948 
L 203.340739 157.715609 
L 203.168586 157.544558 
L 203.397438 157.618203 
L 203.86682 157.378403 
L 203.727702 157.1692 
L 203.824186 157.448678 
L 203.823783 157.784262 
L 204.061369 158.166812 
L 204.068233 157.974931 
L 204.393555 158.072693 
L 204.001099 158.341015 
L 204.093211 158.388797 
L 204.416001 158.513045 
L 204.288238 158.600445 
L 204.032751 158.43016 
L 204.091807 158.569325 
L 203.904614 158.72409 
L 203.738786 158.60541 
L 203.646549 158.947234 
L 204.093384 159.16663 
L 204.068532 159.076743 
L 204.033552 158.969547 
L 203.749607 159.025367 
L 203.642907 158.84794 
L 203.729937 158.827098 
L 203.436493 158.747961 
L 203.534132 158.745182 
L 203.666729 158.681843 
L 203.481191 158.663166 
L 203.597477 158.19449 
L 203.787395 158.340824 
L 204.032293 158.320089 
L 203.671896 158.251591 
L 203.905827 157.976787 
L 203.850312 158.14411 
L 203.938781 158.190636 
L 203.433132 158.418546 
L 203.650324 158.332199 
L 203.120131 158.268627 
L 203.569107 158.507378 
L 203.506048 158.436481 
L 203.213861 158.161756 
L 203.097659 158.419818 
L 203.319671 158.550268 
L 203.661578 158.439487 
L 203.363928 158.49754 
L 203.566841 158.319891 
L 203.577428 158.550965 
L 203.484514 158.511244 
L 203.240425 158.518886 
L 203.481195 158.499364 
L 203.662016 158.185833 
L 203.628784 158.179525 
L 203.286867 158.014533 
L 203.365366 157.76357 
L 203.3113 158.085624 
L 203.50211 158.154832 
L 203.860041 158.097227 
L 203.8759 158.293287 
L 203.942586 158.006571 
L 203.924962 158.16329 
L 204.347485 157.740664 
L 204.227885 157.935757 
L 203.982258 157.833642 
L 204.368446 157.73564 
L 204.470019 157.858948 
L 204.552945 157.715448 
L 204.215543 157.850063 
L 204.10865 157.66056 
L 204.047568 157.753972 
L 203.92974 157.699058 
L 203.920293 157.776725 
L 203.897613 157.541152 
L 203.441858 157.162613 
L 203.584493 157.135891 
L 203.547246 157.013228 
L 203.634546 156.465752 
L 203.787425 156.618556 
L 203.692968 155.879847 
L 203.659938 155.958072 
L 204.022588 156.302235 
L 204.50315 156.209525 
L 204.389443 156.070158 
L 204.519428 156.190715 
L 204.506915 155.844125 
L 204.499276 155.90567 
L 204.180098 155.796196 
L 204.06879 155.540203 
L 204.496462 155.631738 
L 204.288355 156.007318 
L 204.263453 156.43299 
L 203.963498 155.987991 
L 204.314309 156.217077 
L 204.173143 156.036258 
L 203.923338 155.803789 
L 203.915546 155.895721 
L 203.98661 155.506021 
L 203.731755 155.124112 
L 203.907405 155.277639 
L 204.076037 155.112896 
L 204.018634 155.384968 
L 204.095757 155.034913 
L 204.196838 155.173649 
L 204.202465 155.644302 
L 204.871751 154.625866 
L 204.538463 154.879507 
L 204.69694 154.91673 
L 204.559954 155.132879 
L 204.410096 154.993794 
L 204.352543 154.744203 
L 204.438901 154.780781 
L 204.620808 155.307082 
L 204.376295 155.219887 
L 204.177818 155.391037 
L 204.530915 154.954982 
L 204.523948 154.800301 
L 204.354069 155.005882 
L 204.536033 155.23905 
L 204.241205 155.195437 
L 204.148005 155.472563 
L 205.014469 155.265933 
L 205.471289 155.454896 
L 205.314177 155.498939 
L 206.192006 155.127072 
L 206.17165 155.217936 
L 206.452018 154.782465 
L 206.701428 155.01277 
L 206.706799 155.476241 
L 206.384456 155.608261 
L 206.410994 155.363303 
L 206.252672 154.962402 
L 206.618952 154.945194 
L 206.648627 154.587784 
L 206.721543 154.750767 
L 206.554826 154.416329 
L 206.767997 154.602783 
L 207.104083 154.383508 
L 207.019388 154.534718 
L 207.34514 154.770765 
L 207.422871 154.460833 
L 207.546754 154.599238 
L 207.439445 154.554723 
L 207.539085 154.421639 
L 207.2961 154.332285 
L 207.337562 153.931439 
L 207.289651 154.201293 
L 207.126564 154.494263 
L 207.306202 154.297574 
L 207.292101 154.3856 
L 207.822207 154.570089 
L 207.713613 154.291075 
L 207.594324 154.572924 
L 207.55341 154.321995 
L 207.530512 154.137776 
L 207.625752 154.508257 
L 207.793632 154.299289 
L 207.584006 154.211428 
L 207.853722 154.089229 
L 207.899228 154.237364 
L 207.567687 154.244504 
L 207.721645 154.052795 
L 207.440517 154.301885 
L 207.446773 154.003006 
L 207.219093 154.319889 
L 207.25586 154.124158 
L 207.194464 154.008875 
L 207.344577 153.939784 
L 207.126152 153.7405 
L 207.324209 153.75379 
L 207.144173 153.730686 
L 206.738869 153.617022 
L 206.736453 153.415528 
L 206.639473 153.780394 
L 206.573033 154.000936 
L 206.78555 154.064763 
L 206.795491 153.664234 
L 206.98042 153.766612 
L 206.717629 153.979105 
L 207.035886 153.822695 
L 207.463322 153.950306 
L 206.949709 153.867864 
L 207.089918 153.734401 
L 206.816482 154.194597 
L 207.016204 154.416847 
L 206.962122 154.334962 
L 207.017207 154.208895 
L 207.416562 154.335983 
L 207.313932 154.367173 
L 206.882589 154.401699 
L 207.132663 154.391595 
L 207.297615 154.085779 
L 206.946167 154.381599 
L 207.249785 154.378145 
L 207.259585 154.159202 
L 207.209572 154.626441 
L 207.107868 154.515438 
L 207.154504 154.627153 
L 207.235194 154.840881 
L 207.104019 154.792781 
L 207.182734 155.105704 
L 206.948755 155.201508 
L 206.861201 154.983242 
L 207.12182 155.250778 
L 207.283611 155.215353 
L 207.252055 155.377918 
L 207.160246 155.328543 
L 207.052596 155.407192 
L 206.941722 155.236056 
L 206.769657 155.221767 
L 206.650342 155.394295 
L 206.299593 155.321205 
L 206.477339 155.123019 
L 206.752913 155.03405 
L 206.910124 154.682682 
L 207.37812 154.52939 
L 207.310742 154.562993 
L 207.354239 154.806057 
L 207.310159 154.660157 
L 207.22058 154.783718 
L 207.326475 155.272096 
L 207.53456 155.571 
L 207.370396 155.547473 
L 207.431306 155.474566 
L 207.58292 155.068125 
L 207.574264 155.033402 
L 207.716293 155.050487 
L 207.737784 154.586682 
L 208.144864 154.495461 
L 208.69232 154.142498 
L 208.655307 153.986274 
L 209.142703 153.938321 
L 209.00818 154.039313 
L 209.026639 154.262417 
L 208.418564 153.432943 
L 208.063433 153.433647 
L 207.977184 153.790323 
L 208.118268 153.769118 
L 208.197155 153.205281 
L 208.144998 153.290394 
L 208.114796 152.975375 
L 208.283709 152.884768 
L 208.687179 153.182696 
L 208.733284 153.004552 
L 208.541326 152.778291 
L 208.735265 152.704351 
L 208.593774 153.043607 
L 208.613107 152.826199 
L 208.12744 152.858285 
L 208.276092 152.623568 
L 208.237699 152.617969 
L 208.299402 152.350092 
L 208.91352 152.421134 
L 209.14334 152.746211 
L 209.203792 152.540848 
L 209.49951 152.520195 
L 209.839815 152.781085 
L 209.844147 152.472739 
L 209.912514 152.555128 
L 209.677119 152.562492 
L 209.509298 153.335189 
L 209.985586 153.901255 
L 210.229292 153.961792 
L 210.372448 153.868978 
L 210.755155 153.811851 
L 210.401237 153.878428 
L 210.503635 154.137641 
L 210.60434 153.974699 
L 210.400799 153.872744 
L 210.766159 153.77921 
L 210.748136 153.582155 
L 210.773062 153.896871 
L 210.564904 153.423914 
L 210.618314 153.45011 
L 210.273125 153.467337 
L 209.962902 153.765351 
L 209.968323 153.571553 
L 210.390396 153.442756 
L 210.633217 153.13826 
L 210.528341 152.898442 
L 210.667456 152.692948 
L 210.872443 153.025279 
L 210.640498 153.436719 
L 210.078314 153.312186 
L 210.246744 153.238575 
L 210.251956 153.721948 
L 210.31754 153.561969 
L 209.788529 153.564122 
L 210.093311 153.620403 
L 209.666936 153.638762 
L 209.605804 153.512552 
L 209.392116 153.651243 
L 209.409619 153.493342 
L 209.433984 153.582918 
L 209.194832 153.52105 
L 209.191801 153.541769 
L 209.295402 153.359925 
L 209.588737 153.4489 
L 209.558172 153.337737 
L 209.720746 153.436241 
L 209.404642 153.664365 
L 209.395599 153.493352 
L 209.510068 153.57651 
L 209.337387 153.546468 
L 209.527287 153.379924 
L 209.944758 153.717327 
L 209.927216 153.404133 
L 210.070469 152.954763 
L 209.920552 153.036104 
L 209.893807 153.399866 
L 210.156928 153.763751 
L 210.276809 153.647451 
L 210.211652 153.541827 
L 210.399558 153.565833 
L 210.297447 153.894718 
L 210.264636 153.706081 
L 210.609905 153.593571 
L 210.289387 153.292438 
L 210.969517 153.185724 
L 211.069986 153.012812 
L 211.095267 152.81281 
L 210.843073 152.791014 
L 210.774504 153.008271 
L 210.698293 152.657242 
L 210.699683 152.95623 
L 210.524405 152.989678 
L 210.291354 152.747746 
L 210.484353 152.720889 
L 210.654773 153.05672 
L 211.03907 152.766044 
L 211.061823 152.865224 
L 211.143918 152.88337 
L 211.432057 152.587283 
L 211.391233 152.436248 
L 211.889566 152.179454 
L 211.812013 151.857592 
L 211.928137 151.896625 
L 212.137257 151.932563 
L 212.071329 152.085185 
L 211.647391 151.622378 
L 211.712518 151.694764 
L 211.745659 151.47374 
L 211.409089 151.630939 
L 211.410198 151.884569 
L 211.796812 151.461264 
L 211.651291 151.219539 
L 211.362837 151.585101 
L 211.175897 151.733835 
L 211.253157 152.094131 
L 210.312638 151.814592 
L 210.180538 152.062499 
L 210.124668 152.325552 
L 210.18806 152.1059 
L 210.562824 151.880522 
L 210.8382 151.796085 
L 210.765136 151.8329 
L 210.251135 152.206401 
L 209.858535 151.711543 
L 209.675408 151.766868 
L 209.560355 151.612155 
L 210.189531 151.815676 
L 209.903166 151.97809 
L 210.042279 152.235304 
L 209.866428 152.169423 
L 209.878033 152.523502 
L 209.545487 152.870411 
L 209.812525 152.731851 
L 210.069099 152.987616 
L 210.042099 152.666533 
L 209.997902 152.754281 
L 209.914304 152.775032 
L 209.751643 152.633042 
L 209.693996 152.821024 
L 208.886764 152.75961 
L 209.065392 152.53065 
L 208.8513 152.4145 
L 209.11096 152.853618 
L 208.827188 152.661557 
L 209.066748 152.67375 
L 209.111462 152.877812 
L 209.055862 152.480712 
L 209.190216 152.408226 
L 208.774421 152.11254 
L 209.108121 152.423465 
L 208.843367 152.589175 
L 208.619959 152.157938 
L 208.549168 152.384745 
L 208.653612 152.364129 
L 208.867026 152.306604 
L 208.914089 152.491144 
L 209.151391 152.344903 
L 208.407617 152.506709 
L 208.609638 152.850011 
L 208.146101 152.663513 
L 208.493083 152.436513 
L 208.345585 152.30858 
L 208.575395 152.400193 
L 208.448368 152.428184 
L 208.797817 152.249385 
L 208.838809 152.435155 
L 208.977738 152.406139 
L 209.38571 151.915927 
L 209.800312 151.916966 
L 209.663639 151.992936 
L 209.771977 151.353741 
L 209.700808 152.298649 
L 209.829055 152.17078 
L 209.769082 152.424687 
L 209.606714 152.564889 
L 209.774909 152.817332 
L 209.99104 152.810353 
L 210.045885 152.631061 
L 209.967335 152.421814 
L 209.788931 152.352432 
L 209.77924 151.99593 
L 209.892883 151.780963 
L 210.266275 151.734239 
L 210.127138 151.747632 
L 210.356008 151.324937 
L 209.901288 151.449507 
L 209.717312 151.274884 
L 209.250163 151.42631 
L 209.848146 151.25932 
L 210.100764 150.89715 
L 209.999508 150.900685 
L 209.561304 150.511572 
L 209.805407 150.51984 
L 209.690112 150.173575 
L 209.886065 150.179105 
L 209.791076 150.199882 
L 209.675144 149.716865 
L 209.740189 150.158114 
L 209.558424 150.319589 
L 209.238878 150.443955 
L 209.417452 150.673481 
L 209.197816 150.73362 
L 209.410013 150.676022 
L 209.119417 150.484094 
L 208.774784 151.22992 
L 208.082462 151.397311 
L 208.217759 151.273452 
L 208.34985 151.333659 
L 208.383821 151.023033 
L 208.959231 151.341881 
L 208.614884 151.474489 
L 208.725084 151.601657 
L 208.560215 151.116645 
L 208.591968 150.777334 
L 208.373622 150.932071 
L 208.192958 150.714798 
L 207.919224 150.769718 
L 207.687132 150.378609 
L 207.799112 150.365301 
L 207.906217 150.407511 
L 207.808354 150.135512 
L 208.086917 150.345982 
L 207.828869 150.335486 
L 208.03673 150.575183 
L 207.877276 150.685252 
L 207.963239 150.592492 
L 207.590305 150.395581 
L 207.94435 150.581986 
L 208.021826 150.840992 
L 208.197028 150.701 
L 208.02621 151.046575 
L 208.150829 150.862086 
L 208.290389 150.953093 
L 208.682882 150.8804 
L 208.416189 150.89968 
L 208.556811 151.122405 
L 209.116353 151.084072 
L 208.969579 151.262393 
L 209.097092 150.956749 
L 209.264764 151.014803 
L 209.423101 150.767387 
L 209.144607 150.236871 
L 209.339761 150.105528 
L 209.17288 149.794668 
L 209.08805 149.935141 
L 209.20834 149.974071 
L 209.119195 150.128658 
L 208.83182 150.242476 
L 209.21656 150.690621 
L 209.139236 150.956926 
L 208.785661 151.213541 
L 208.335783 151.054635 
L 208.618478 151.036481 
L 208.40183 150.890678 
L 208.71585 150.566053 
L 208.391036 150.921029 
L 207.968882 150.685997 
L 207.842392 150.769387 
L 208.027978 150.657792 
L 207.911723 150.739706 
L 207.900455 150.954715 
L 208.132561 151.04621 
L 208.212122 150.936332 
L 208.669158 151.108169 
L 208.40613 150.887316 
L 208.296527 151.045227 
L 208.037515 150.696305 
L 208.237764 150.475388 
L 208.696731 150.646631 
L 209.084226 150.577501 
L 209.316014 150.025968 
L 209.861747 150.214254 
L 209.938703 150.148318 
L 209.857572 150.32608 
L 209.945383 150.551993 
L 210.067576 150.548431 
L 210.383841 150.22364 
L 210.400945 149.834189 
L 210.294945 149.913746 
L 210.682235 149.73734 
L 210.592005 149.54035 
L 210.564541 149.672025 
L 210.737435 149.575503 
L 210.896088 149.749332 
L 210.460652 149.22605 
L 210.704442 149.384953 
L 210.574744 149.170523 
L 210.704564 149.348063 
L 210.575222 148.722636 
L 210.810591 148.779202 
L 210.981187 149.097221 
L 211.418757 148.919947 
L 211.601563 149.050533 
L 211.499072 149.155665 
L 211.763961 149.081106 
L 211.984192 149.395961 
L 212.104073 149.282874 
L 211.929565 149.253984 
L 212.038355 149.131617 
L 211.855248 149.378218 
L 211.838692 149.115607 
L 211.715696 149.458245 
L 211.61648 149.163213 
L 211.521855 149.434092 
L 211.643255 149.541322 
L 211.776138 149.442637 
L 211.629576 149.385104 
L 211.779432 149.691134 
L 211.777235 149.351174 
L 211.919481 149.468924 
L 211.425666 149.514964 
L 211.436375 149.323956 
L 211.048533 149.359085 
L 210.889621 149.639869 
L 210.916675 149.818527 
L 211.025245 149.786223 
L 210.734923 149.946084 
L 210.776974 149.632874 
L 210.697048 150.049525 
L 210.812978 150.046511 
L 211.145687 150.262106 
L 211.269831 150.126847 
L 211.165014 150.082029 
L 211.051926 150.166037 
L 211.5904 149.70504 
L 211.630165 149.784132 
L 211.820678 149.851668 
L 211.793324 149.642792 
L 211.761147 149.684381 
L 211.492769 149.21375 
L 211.615935 149.161468 
L 211.874262 149.340337 
L 212.069204 149.094368 
L 211.895703 148.859951 
L 212.338048 148.511935 
L 212.411824 148.522261 
L 212.370083 148.539552 
L 212.750652 148.429886 
L 212.952835 148.674107 
L 212.898432 148.881136 
L 212.677074 148.881189 
L 212.834698 148.533977 
L 212.936904 148.744299 
L 212.881484 148.762894 
L 212.931041 149.399258 
L 212.860217 149.037509 
L 212.386 149.444053 
L 212.458576 149.417203 
L 212.483764 149.670968 
L 212.702447 149.749336 
L 212.328155 149.534337 
L 212.565157 149.672956 
L 212.607133 149.442175 
L 212.578675 149.519698 
L 212.727353 149.406059 
L 212.628532 149.836173 
L 212.568865 149.663493 
L 212.19493 149.617027 
L 212.402521 149.530393 
L 212.563091 149.716062 
L 212.337475 149.595572 
L 212.528119 149.504967 
L 212.256429 149.295611 
L 212.117736 149.371376 
L 212.01258 149.2215 
L 212.446563 149.738936 
L 211.798255 149.95154 
L 212.076417 149.8356 
L 212.382776 149.584328 
L 212.370039 149.599036 
L 212.161914 149.982343 
L 212.173747 149.914137 
L 212.507891 150.027168 
L 212.387639 149.929005 
L 212.188365 149.665119 
L 212.400584 149.80727 
L 212.329836 149.664748 
L 212.27992 150.017151 
L 212.4971 150.055286 
L 212.44503 149.985605 
L 212.449563 149.886829 
L 212.27034 149.944672 
L 212.180791 149.690166 
L 212.09002 149.732068 
L 212.042709 149.657022 
L 211.387089 149.786578 
L 211.734944 149.958188 
L 212.068633 149.990232 
L 211.885206 149.764582 
L 212.126547 149.943258 
L 212.059635 149.910098 
L 212.288747 149.918048 
L 212.215831 149.813368 
L 212.65857 150.093294 
L 212.749224 149.594947 
L 213.010402 149.983806 
L 213.565464 149.517843 
L 214.219035 149.115452 
L 214.146629 149.172008 
L 214.272425 149.364704 
L 214.235484 149.207013 
L 214.440424 149.420181 
L 214.260109 149.33379 
L 214.21507 149.404169 
L 214.374787 149.430053 
L 214.273381 148.53024 
L 214.456016 148.262101 
L 214.575067 148.225572 
L 214.619314 147.895936 
L 214.790369 148.13532 
L 214.562108 147.736409 
L 214.534094 147.487048 
L 214.20131 147.273391 
L 213.980355 147.644979 
L 214.126963 147.20623 
L 214.174304 147.252395 
L 214.273232 147.442074 
L 214.099677 147.112821 
L 214.199224 147.014284 
L 214.205091 146.796993 
L 213.99106 147.024935 
L 214.120099 147.2859 
L 214.197583 147.035346 
L 213.883463 146.935394 
L 214.114181 146.96039 
L 214.170045 146.717463 
L 213.85843 146.047887 
L 214.158906 146.531418 
L 214.151513 146.373007 
L 214.509188 146.459626 
L 214.325722 146.499782 
L 214.514402 146.421176 
L 214.271571 146.050193 
L 214.051191 146.150206 
L 214.044862 145.920371 
L 214.213805 146.091078 
L 214.139204 146.105661 
L 213.867508 146.318118 
L 214.14563 146.084284 
L 214.664952 146.07808 
L 214.360895 146.360861 
L 214.510986 146.219485 
L 214.617292 145.969551 
L 214.584857 146.055082 
L 214.675004 146.258897 
L 214.784088 146.230426 
L 214.589723 145.965631 
L 214.852005 146.121009 
L 214.832505 145.883425 
L 215.07542 146.106317 
L 215.163529 145.583655 
L 214.968589 145.613712 
L 215.191976 145.302559 
L 215.806663 145.25176 
L 215.719312 144.732798 
L 216.215258 144.863479 
L 215.785383 144.812966 
L 216.008467 144.704616 
L 215.83247 144.421765 
L 215.270963 144.06182 
L 215.508721 144.131613 
L 215.557872 144.171377 
L 215.774566 144.105941 
L 215.738645 144.331487 
L 215.578387 144.325186 
L 215.884526 144.244011 
L 215.924142 144.207651 
L 215.862254 143.97861 
L 215.748858 144.010304 
L 215.5562 143.899448 
L 215.816123 144.160431 
L 215.698654 144.563246 
L 215.263934 144.173029 
L 215.403543 143.98416 
L 215.158729 143.440342 
L 215.454363 143.337649 
L 215.130898 142.700706 
L 215.308737 143.097862 
L 215.079054 143.238104 
L 215.029085 143.080034 
L 215.082068 143.109003 
L 215.222996 142.936975 
L 215.400294 142.610613 
L 215.691432 142.843156 
L 215.5292 142.747472 
L 215.404067 142.959913 
L 215.251604 142.799715 
L 215.297953 142.138965 
L 215.307972 142.225622 
L 215.035871 142.237348 
L 215.06712 142.346263 
L 214.863377 142.371504 
L 214.899014 142.189666 
L 215.084558 142.654059 
L 215.382989 142.673414 
L 214.73188 142.213936 
L 214.82183 142.308841 
L 214.75516 143.272321 
L 214.987395 143.360664 
L 215.280035 143.177162 
L 215.424905 142.738022 
L 214.305112 142.35295 
L 214.640648 142.327266 
L 214.229421 141.995771 
L 214.391684 141.950984 
L 214.21989 141.676066 
L 213.996554 142.055557 
L 213.711045 142.006957 
L 214.013464 142.415577 
L 213.944806 142.344978 
L 213.591365 142.214695 
L 213.665653 141.841085 
L 213.79674 141.915789 
L 213.8481 142.380218 
L 213.516329 142.547482 
L 213.139195 142.385105 
L 213.459525 142.077176 
L 213.07711 141.920813 
L 212.972045 142.049099 
L 213.161233 141.741646 
L 213.084547 141.767462 
L 213.113077 141.418336 
L 212.945392 141.79409 
L 212.995006 141.968723 
L 213.333681 141.839081 
L 213.145385 141.709258 
L 213.111218 141.54801 
L 213.036916 141.690474 
L 213.233302 141.536919 
L 213.166051 141.405423 
L 213.666896 141.310686 
L 213.782883 141.179208 
L 213.451812 141.609208 
L 213.403809 141.454102 
L 213.267616 141.43305 
L 213.355273 141.680103 
L 213.276693 141.359161 
L 213.063586 141.289904 
L 212.800594 141.648731 
L 212.683665 141.615707 
L 212.512037 141.739701 
L 212.871782 141.674879 
L 212.73786 141.736068 
L 212.545787 141.474758 
L 212.17545 141.609004 
L 212.245602 141.77847 
L 212.099584 141.773539 
L 211.795353 141.869579 
L 211.75769 142.219838 
L 211.850283 142.209745 
L 211.894959 142.265496 
L 211.771029 142.658895 
L 211.540258 142.571244 
L 211.588604 142.560913 
L 211.392159 142.768922 
L 211.323447 142.521673 
L 211.482001 142.038335 
L 211.78013 142.327021 
L 211.750126 142.510334 
L 211.409971 142.287793 
L 211.66298 141.988584 
L 211.337096 142.245167 
L 211.549438 142.443777 
L 211.927223 142.116092 
L 212.159242 142.244404 
L 212.09939 141.912637 
L 212.412431 141.438159 
L 212.19034 141.53067 
L 211.643873 141.163022 
L 211.491434 140.936713 
L 210.8329 141.091592 
L 210.404863 140.421136 
L 210.276308 140.676668 
L 210.112853 140.619616 
L 210.222969 140.653495 
L 210.206529 140.448389 
L 209.569895 140.614564 
L 209.472516 140.482552 
L 208.829197 141.007309 
L 208.747244 140.603503 
L 208.606705 140.507617 
L 208.831798 140.779888 
L 208.684575 141.060291 
L 207.721349 141.398531 
L 207.40013 141.238197 
L 206.807936 141.676298 
L 206.203448 142.037913 
L 206.298703 142.007746 
L 206.081638 141.899376 
L 206.213195 141.824698 
L 205.921623 141.995912 
L 205.888508 142.248482 
L 205.963031 142.538756 
L 205.856509 142.351469 
L 205.643854 142.323261 
L 205.711549 142.018643 
L 205.911255 141.981718 
L 205.665549 141.861017 
L 205.307404 142.821362 
L 204.783573 143.131189 
L 204.958127 143.354525 
L 204.611781 143.603583 
L 204.453604 143.511731 
L 204.122711 144.24487 
L 203.883744 143.954396 
L 203.851523 144.154382 
L 203.900827 143.963096 
L 204.110924 144.108046 
L 204.19798 144.539307 
L 204.350814 144.531336 
L 204.137034 144.751564 
L 204.208268 144.639599 
L 203.849116 144.423877 
L 203.588577 144.677179 
L 203.769127 144.797233 
L 203.787566 144.71646 
L 203.301646 144.742749 
L 203.325855 144.585278 
L 203.349342 145.143539 
L 203.298389 145.066175 
L 203.060708 145.025494 
L 202.76932 145.455305 
L 203.093244 145.255323 
L 202.940293 145.341505 
L 202.720649 145.258008 
L 202.824728 145.252629 
L 202.734639 145.163428 
L 202.928679 145.162321 
L 202.841042 145.080406 
L 202.756851 144.801345 
L 202.664576 145.057602 
L 202.881476 145.228749 
L 203.003283 145.084144 
L 202.723206 145.121522 
L 202.458625 145.573366 
L 202.402807 145.525102 
L 202.083347 145.471282 
L 201.829339 145.934251 
L 201.530911 145.673821 
L 201.694239 145.837661 
L 201.833016 145.489229 
L 202.330309 145.63527 
L 202.320766 145.92067 
L 202.223545 145.866158 
L 202.186521 145.915495 
L 202.157503 145.735846 
L 201.683475 145.392745 
L 201.237604 146.00813 
L 201.009701 146.040058 
L 200.94645 145.858598 
L 200.237315 146.408624 
L 200.068482 146.244162 
L 200.192974 146.004566 
L 200.097086 146.307939 
L 200.307815 146.389352 
L 200.091176 146.928106 
L 200.180443 146.658726 
L 199.835398 146.916105 
L 199.418684 146.991048 
L 199.071274 146.842553 
L 198.965205 146.053586 
L 198.777244 146.085441 
L 198.777803 145.865615 
L 198.437188 145.761145 
L 198.527203 145.691662 
L 198.831081 145.190037 
L 198.550118 145.324089 
L 198.575038 145.176595 
L 198.491047 145.388522 
L 198.200939 145.689042 
L 197.925072 145.69255 
L 198.153912 145.606961 
L 197.976538 145.291006 
L 197.953864 145.178906 
L 197.759943 145.009044 
L 197.231587 144.805356 
L 196.765681 144.865919 
L 196.82001 144.940268 
L 197.027769 144.715259 
L 196.841914 144.611443 
L 196.51297 144.57858 
L 196.351228 144.366121 
L 196.286183 144.485015 
L 195.991597 144.481289 
L 194.397779 144.091251 
L 194.271135 144.251079 
L 194.100038 143.385378 
L 193.810514 143.14853 
L 193.439938 143.003982 
L 192.782052 143.098586 
L 192.619507 142.546976 
L 192.131057 142.475857 
L 190.873745 141.203937 
L 190.65839 140.58089 
L 190.330493 139.985026 
L 189.751309 139.474515 
L 189.306573 138.846323 
L 188.999682 137.701988 
L 187.287072 133.517996 
L 186.65957 126.586238 
L 226.326379 -1 
L 226.326379 -1 
" clip-path="url(#pdbc9888c9d)" style="fill: none; stroke: #22aa22; stroke-width: 1.5; stroke-linecap: square"/>
   </g>
   <g id="line2d_14">
    <path d="M 202.807242 290.596829 
L 202.672652 290.324677 
L 203.236915 289.566037 
L 203.108411 289.369703 
L 203.057139 288.834742 
L 203.203523 288.381388 
L 203.164882 287.773115 
L 203.658727 287.216709 
L 203.676004 286.966113 
L 204.17398 286.466396 
L 204.275099 286.154337 
L 204.411427 285.645753 
L 204.259586 285.687739 
L 204.133378 285.372095 
L 204.217206 285.187292 
L 204.120227 285.108699 
L 204.124547 284.231303 
L 203.720283 284.031527 
L 203.307814 283.260769 
L 203.677951 282.957909 
L 203.774282 283.011061 
L 203.470072 282.41202 
L 203.440934 282.669864 
L 203.563371 282.223046 
L 203.334634 281.956429 
L 203.355405 281.630475 
L 203.205032 281.74406 
L 203.431502 281.43319 
L 202.930463 281.473637 
L 203.111679 281.100574 
L 203.03023 281.330598 
L 203.048677 281.558654 
L 203.418718 281.262155 
L 203.531868 281.336355 
L 203.351854 280.738408 
L 203.580735 280.288798 
L 203.572166 280.36165 
L 203.451528 279.98248 
L 203.845746 279.883917 
L 203.57564 279.854811 
L 203.557209 279.75436 
L 203.352189 279.698861 
L 203.502655 279.703349 
L 203.344514 279.321182 
L 203.116782 279.134825 
L 203.215931 278.983284 
L 202.901904 278.850127 
L 202.989488 278.210559 
L 203.14134 277.988212 
L 202.757428 277.840986 
L 202.728752 277.597972 
L 203.158066 276.38003 
L 203.050019 276.052664 
L 203.555145 274.429682 
L 203.816301 274.337559 
L 203.92083 273.744449 
L 203.684432 273.78212 
L 203.840198 273.828912 
L 203.97632 273.562486 
L 203.9183 273.037851 
L 204.051761 272.820056 
L 204.199911 272.289156 
L 203.95224 272.315359 
L 204.177507 272.198158 
L 204.133154 271.831694 
L 204.244661 271.870745 
L 204.33088 271.859324 
L 204.260647 271.671556 
L 204.320019 271.203451 
L 204.656636 270.88373 
L 204.778676 270.341267 
L 205.110215 270.172913 
L 205.086231 269.793997 
L 204.941193 269.628276 
L 204.988934 269.35522 
L 205.129904 269.382898 
L 204.856584 269.163391 
L 204.797684 268.934795 
L 204.944706 268.822828 
L 204.990748 268.561209 
L 204.909343 268.281808 
L 205.014434 267.732429 
L 205.383646 267.270764 
L 205.126458 266.878239 
L 205.774329 266.766003 
L 205.685405 266.781452 
L 206.00578 266.554664 
L 206.009006 265.851222 
L 206.371221 265.285775 
L 205.980013 265.141039 
L 206.030508 265.014226 
L 205.931814 264.88091 
L 206.017708 264.589613 
L 205.901346 264.048974 
L 205.536892 262.291264 
L 205.277509 262.358517 
L 205.251204 262.202027 
L 205.526346 262.061907 
L 205.237064 260.828738 
L 205.355573 260.768765 
L 205.323977 260.613576 
L 205.284309 260.664682 
L 205.208922 260.69723 
L 205.249969 260.150214 
L 205.597311 260.125343 
L 205.679011 259.381565 
L 205.92401 259.104385 
L 206.04888 258.384178 
L 205.662131 258.017222 
L 205.548453 257.681148 
L 205.634464 257.438657 
L 205.007536 256.757667 
L 205.196381 256.407738 
L 204.8149 255.710633 
L 204.32863 255.416156 
L 204.371 254.784146 
L 203.94104 254.559016 
L 204.053555 254.450293 
L 203.966737 254.154174 
L 204.383213 253.266017 
L 204.407164 252.722974 
L 204.286729 252.580784 
L 204.498223 252.247605 
L 204.585646 251.780578 
L 204.348575 251.576917 
L 204.227352 250.122376 
L 204.512548 249.909451 
L 204.18287 249.449285 
L 204.260629 248.578441 
L 204.43643 248.468473 
L 204.563015 248.08621 
L 204.836805 247.921711 
L 204.803184 247.673383 
L 205.040607 247.533698 
L 205.163173 246.687574 
L 205.129676 245.795142 
L 204.688622 245.25137 
L 204.373746 245.022956 
L 204.543135 244.53113 
L 204.254659 243.867088 
L 203.92935 243.518983 
L 204.405483 242.832902 
L 204.323806 242.776934 
L 204.325453 242.057964 
L 204.460879 241.603159 
L 204.811498 241.644882 
L 204.793897 241.46736 
L 204.9287 241.076771 
L 204.667221 240.51084 
L 204.818235 240.434475 
L 204.978267 240.215451 
L 204.815348 239.913337 
L 204.415469 239.741874 
L 204.696448 239.608296 
L 204.409688 239.06607 
L 204.220938 238.674806 
L 204.179979 238.746112 
L 204.05691 238.870363 
L 204.539171 238.369663 
L 204.431886 238.412489 
L 204.746588 238.472525 
L 204.453771 237.825074 
L 204.293595 237.618739 
L 204.093173 237.612894 
L 204.101528 236.870861 
L 204.298251 236.625777 
L 204.726504 236.427651 
L 204.858188 236.160701 
L 205.192293 236.07524 
L 204.995523 235.975209 
L 205.115815 235.769319 
L 205.263174 235.850395 
L 205.331719 235.513917 
L 205.786409 235.030608 
L 205.942037 234.48843 
L 206.272729 234.439474 
L 206.173946 233.946799 
L 206.312492 233.235315 
L 206.445824 233.333633 
L 206.324384 232.594082 
L 206.394466 232.986948 
L 206.422069 233.067326 
L 206.278366 232.781462 
L 206.204138 232.407781 
L 206.303057 232.252005 
L 206.283317 231.989362 
L 206.522322 231.93713 
L 206.444274 231.404167 
L 206.125158 231.08819 
L 206.636735 230.404987 
L 206.503179 230.532427 
L 206.697154 230.362812 
L 206.427355 230.425076 
L 206.567736 230.052164 
L 207.487527 229.885697 
L 207.464871 229.68129 
L 207.623498 229.662716 
L 207.747023 229.293079 
L 208.031977 229.046806 
L 208.311029 228.595641 
L 208.218996 228.549936 
L 208.115803 228.530038 
L 208.328653 228.256212 
L 208.262883 228.326106 
L 208.394256 227.780843 
L 208.930881 227.2516 
L 208.812328 227.221106 
L 208.414343 226.960454 
L 208.519758 226.735054 
L 208.256257 226.667754 
L 207.901292 226.109555 
L 207.963388 225.892038 
L 207.869266 225.6495 
L 208.026777 225.305971 
L 208.013738 224.652017 
L 208.129989 224.852364 
L 207.972288 224.398281 
L 207.978692 224.40978 
L 208.028785 224.191772 
L 207.81062 223.292971 
L 207.926714 223.183321 
L 207.721807 223.342031 
L 207.742417 223.02078 
L 207.561273 222.95152 
L 207.442974 222.014771 
L 207.06613 221.48184 
L 207.184191 221.261342 
L 207.584861 221.273293 
L 207.913571 220.847253 
L 207.949654 220.601289 
L 208.341398 220.497998 
L 208.262312 219.97165 
L 208.231818 220.376198 
L 208.163943 220.119194 
L 208.333423 219.989304 
L 207.994939 219.668838 
L 208.468988 219.387185 
L 208.949562 219.189535 
L 209.104646 218.87094 
L 208.791744 218.454195 
L 209.010876 218.347376 
L 208.877485 217.770635 
L 208.353403 217.481995 
L 208.563169 217.284353 
L 208.31775 216.958502 
L 208.803203 216.912171 
L 208.804003 216.705567 
L 209.265428 216.615116 
L 209.176724 216.582021 
L 208.992065 215.857507 
L 209.025752 215.268878 
L 208.789693 215.35373 
L 208.849355 215.233579 
L 208.837294 215.119733 
L 208.944387 214.84563 
L 208.910618 214.625218 
L 208.962677 214.252822 
L 208.839158 214.388358 
L 208.722639 213.784685 
L 208.976558 213.387902 
L 208.907023 213.174532 
L 209.009185 213.256782 
L 209.334628 213.181345 
L 209.192312 212.792682 
L 209.583887 211.340006 
L 209.476822 211.312185 
L 209.524305 210.935125 
L 209.78586 211.016177 
L 209.759103 210.830645 
L 209.628936 211.007961 
L 209.551193 210.797693 
L 209.862003 210.113007 
L 210.117514 210.019273 
L 210.373259 209.782889 
L 210.943617 209.854337 
L 210.818276 209.638446 
L 210.977474 209.382664 
L 210.911192 209.165234 
L 211.517548 209.204491 
L 211.225829 209.088766 
L 211.113625 208.856299 
L 211.221602 208.869806 
L 211.477185 208.685249 
L 211.450054 208.475203 
L 211.268598 208.400003 
L 211.726656 207.742544 
L 211.92488 207.728546 
L 211.652417 207.847087 
L 211.681967 206.975243 
L 211.817487 206.981588 
L 211.858531 206.478722 
L 212.272237 206.277265 
L 212.329301 205.888753 
L 212.599615 205.839281 
L 213.080274 205.304963 
L 212.961134 204.898496 
L 212.874078 204.44239 
L 212.853315 204.463843 
L 213.040027 204.221598 
L 212.948485 204.330685 
L 212.806248 204.23646 
L 212.989009 203.905843 
L 213.480805 203.931308 
L 213.629467 203.426627 
L 213.681957 203.171907 
L 214.095155 202.790445 
L 213.811589 202.990023 
L 213.940818 202.610655 
L 213.82339 202.354967 
L 213.928645 202.471851 
L 213.945448 201.893302 
L 214.185328 201.447895 
L 213.860353 201.474804 
L 213.751624 201.25946 
L 213.390485 200.964476 
L 213.124141 200.511963 
L 213.776868 200.104148 
L 213.542474 199.791398 
L 213.5893 199.786505 
L 213.468812 198.950397 
L 213.64532 198.814932 
L 213.187876 198.795652 
L 213.205441 198.94322 
L 213.027659 199.070263 
L 213.010047 199.219527 
L 213.121082 199.199312 
L 212.862608 199.069985 
L 212.921732 199.004834 
L 212.77566 198.695463 
L 212.634625 198.641018 
L 212.111373 198.039082 
L 212.201336 197.654964 
L 212.436915 197.713889 
L 212.715634 197.594444 
L 212.276639 197.023565 
L 212.514748 197.033192 
L 212.727028 196.753665 
L 212.215996 195.633906 
L 212.231318 195.805607 
L 212.340747 195.7688 
L 212.255414 195.604403 
L 212.319564 195.437398 
L 212.286808 195.537872 
L 212.546964 195.594847 
L 212.63885 195.29853 
L 212.892864 194.861085 
L 213.435005 194.066622 
L 213.635223 194.195616 
L 213.707045 194.436917 
L 213.593983 193.839461 
L 213.6016 193.619787 
L 213.798929 193.351173 
L 214.021607 193.258748 
L 213.92666 193.178663 
L 213.813391 192.775328 
L 214.005837 192.385619 
L 214.19076 192.056786 
L 214.384616 192.156254 
L 214.155314 191.938158 
L 214.230362 191.992547 
L 214.206138 191.358166 
L 213.988704 191.211891 
L 214.232208 190.23339 
L 213.906855 190.255176 
L 214.258641 190.054572 
L 214.567721 189.271624 
L 214.576766 189.350987 
L 214.844641 189.469611 
L 215.026872 189.16419 
L 214.804676 188.730841 
L 215.190814 188.554905 
L 214.780707 188.407124 
L 214.80374 188.171065 
L 214.576478 187.792082 
L 214.911315 187.731879 
L 215.193198 188.02481 
L 215.251066 187.948433 
L 215.147193 187.642607 
L 215.044036 187.298004 
L 215.074016 187.508125 
L 214.85322 187.229775 
L 215.191096 187.027299 
L 215.023696 186.342926 
L 215.435809 185.752942 
L 215.529468 185.821959 
L 215.750315 185.600493 
L 215.697257 185.416729 
L 215.751578 185.630249 
L 216.049781 185.411729 
L 215.702285 185.107866 
L 215.694116 183.728105 
L 216.120073 183.433854 
L 215.955924 183.2137 
L 216.006647 183.227032 
L 216.024343 183.09809 
L 216.265684 182.770018 
L 216.178652 182.42731 
L 216.244118 181.605735 
L 216.145963 181.451542 
L 216.008743 181.463688 
L 216.343145 181.339135 
L 216.100429 181.397375 
L 216.501485 181.056618 
L 216.480433 180.732658 
L 216.097338 180.214312 
L 216.169743 180.047346 
L 216.388337 179.914185 
L 216.245002 179.487022 
L 216.454111 179.520494 
L 216.493233 178.775336 
L 215.777647 178.593587 
L 216.136765 178.394977 
L 216.073036 178.20724 
L 216.310629 178.012683 
L 216.253058 178.010942 
L 216.300377 177.518831 
L 216.43056 177.336134 
L 216.510621 176.970276 
L 216.388868 176.593002 
L 216.516908 176.593256 
L 216.933776 176.15622 
L 216.799866 176.183712 
L 216.942233 175.782991 
L 217.128375 175.940479 
L 217.087812 175.753218 
L 217.261931 174.55958 
L 217.370214 174.514688 
L 216.819847 174.251518 
L 216.919584 173.81491 
L 217.212083 173.726732 
L 217.205893 173.436145 
L 216.993551 172.959189 
L 217.849301 172.462621 
L 218.148758 171.409433 
L 218.393777 171.447433 
L 219.481609 170.316356 
L 219.46112 170.414757 
L 219.280969 170.41881 
L 219.492151 170.456306 
L 219.316199 170.109292 
L 219.508129 170.164145 
L 219.37775 170.239408 
L 219.406029 170.288174 
L 219.959171 170.018537 
L 220.068933 170.172354 
L 220.132153 170.001212 
L 220.167786 170.201943 
L 220.300055 170.348464 
L 220.509015 170.134211 
L 220.819964 170.026729 
L 220.937755 170.177925 
L 220.726888 170.004725 
L 220.728701 169.518316 
L 220.938794 169.440987 
L 220.875987 169.283245 
L 220.748365 169.303797 
L 221.448781 169.233491 
L 221.288893 169.278752 
L 221.465948 168.899027 
L 221.51559 168.4999 
L 221.279757 168.748652 
L 221.380692 168.532825 
L 221.157945 168.313956 
L 221.21181 168.030399 
L 221.477637 168.119712 
L 221.645873 168.265578 
L 221.759148 168.042133 
L 221.41155 167.74762 
L 221.901901 167.721524 
L 221.836286 167.694897 
L 221.970938 167.860174 
L 222.289204 167.768581 
L 222.361496 167.427872 
L 222.14643 167.283782 
L 222.099829 166.905093 
L 222.106182 167.021377 
L 222.308471 166.722336 
L 222.191826 166.220311 
L 222.215638 165.716221 
L 222.039559 165.765657 
L 222.137679 165.911726 
L 222.50979 165.555448 
L 222.178514 165.267982 
L 222.352729 165.268042 
L 222.34985 165.140519 
L 222.00623 164.709407 
L 222.094333 164.474034 
L 222.304205 164.382002 
L 222.639295 164.528055 
L 222.924302 164.014733 
L 223.156555 164.109731 
L 223.483262 163.982324 
L 223.411429 164.04755 
L 223.959437 164.096086 
L 224.142954 163.951029 
L 224.159407 163.595739 
L 223.817091 163.507184 
L 223.894131 163.416496 
L 223.533024 163.000889 
L 224.053055 163.258721 
L 224.127089 163.42882 
L 223.711319 163.342748 
L 224.142808 162.976339 
L 224.629934 162.803183 
L 224.803229 163.089535 
L 225.150989 163.121737 
L 225.052077 162.977477 
L 225.221192 162.771337 
L 225.109618 162.70711 
L 225.763279 162.54721 
L 225.769762 162.040292 
L 225.975102 161.983246 
L 225.819639 162.353216 
L 225.945762 162.465142 
L 225.835917 162.788911 
L 225.645309 162.6285 
L 225.52421 162.309545 
L 225.546876 162.319538 
L 225.944152 162.417788 
L 226.54773 161.932219 
L 226.15718 161.792844 
L 225.87126 161.902673 
L 225.842595 161.768195 
L 225.996376 161.644856 
L 225.923909 161.314421 
L 226.282399 160.753281 
L 226.195648 160.588844 
L 226.595711 160.175121 
L 226.934858 160.265079 
L 226.998455 159.973719 
L 226.786295 159.643625 
L 226.789741 159.658 
L 226.772024 159.379757 
L 226.827646 159.676887 
L 226.948372 159.122935 
L 227.326348 158.84323 
L 227.344648 159.232705 
L 227.978708 159.197195 
L 227.751147 158.960407 
L 228.097701 158.567759 
L 227.804953 158.623683 
L 227.604753 158.462819 
L 227.535755 158.195362 
L 227.659598 158.305584 
L 227.493877 157.659632 
L 227.709328 157.826719 
L 227.653705 157.523187 
L 227.818388 157.561392 
L 227.997123 157.275452 
L 228.152764 157.265323 
L 228.264719 157.069732 
L 228.11131 157.111979 
L 227.94436 156.916064 
L 228.132116 156.672633 
L 228.867143 156.917591 
L 228.925676 156.693297 
L 228.762243 156.750543 
L 229.080409 156.559208 
L 228.867258 156.649174 
L 228.978974 156.149259 
L 229.035818 156.334044 
L 229.050546 156.064674 
L 228.959945 155.585087 
L 229.074615 155.331366 
L 229.018089 154.97813 
L 229.229832 155.083651 
L 229.413156 154.921864 
L 229.422137 154.311477 
L 229.296086 153.950489 
L 229.352446 153.605731 
L 229.312756 153.477633 
L 229.47768 153.648531 
L 229.297002 153.502369 
L 229.688285 153.087876 
L 229.75145 153.308349 
L 229.695867 153.259849 
L 229.450426 153.060121 
L 229.559799 152.767749 
L 229.513004 152.920942 
L 229.877212 152.919574 
L 229.695935 152.436022 
L 230.152457 152.574626 
L 230.112057 152.714992 
L 230.45927 152.637806 
L 230.67434 152.470005 
L 230.868925 152.024364 
L 230.999045 152.153945 
L 231.54666 151.169347 
L 231.294711 150.994914 
L 231.967696 150.578452 
L 231.852715 150.593919 
L 231.747562 150.534189 
L 231.795876 150.319775 
L 232.082874 150.394356 
L 232.032906 149.94399 
L 231.820846 149.685259 
L 231.953579 149.529305 
L 232.272601 149.322417 
L 232.245863 149.192333 
L 232.518736 148.980379 
L 232.885375 148.752705 
L 232.895657 148.514977 
L 233.065161 148.54696 
L 233.083664 147.642257 
L 233.40871 147.488838 
L 233.246129 147.357041 
L 233.592989 147.679989 
L 233.863693 147.43461 
L 233.683177 147.195979 
L 233.868698 147.329125 
L 234.241277 146.778484 
L 234.078906 146.419554 
L 233.934991 146.491837 
L 234.226585 146.592706 
L 234.598165 146.533979 
L 234.384165 146.783011 
L 234.450502 146.594675 
L 234.213479 146.504213 
L 234.081884 146.260584 
L 233.982567 145.756852 
L 234.358616 145.398398 
L 234.215613 145.258567 
L 234.554779 144.899821 
L 234.399872 145.083111 
L 234.653553 145.032967 
L 234.8887 144.759611 
L 234.759833 144.495343 
L 234.822522 144.175101 
L 234.951095 144.162683 
L 234.814769 144.133673 
L 234.747961 143.96515 
L 235.13056 143.864735 
L 234.924321 143.433266 
L 235.240552 143.554402 
L 235.371988 143.427679 
L 235.242574 143.125114 
L 235.48635 142.975168 
L 235.722032 143.01385 
L 235.873267 142.836532 
L 235.665969 142.617005 
L 236.131612 142.351858 
L 236.232293 141.739348 
L 236.047042 141.824062 
L 236.379944 141.889047 
L 236.668052 141.433679 
L 236.598967 141.327159 
L 236.304558 141.23989 
L 236.331685 141.284842 
L 236.637535 141.123472 
L 236.708202 140.724123 
L 237.103823 140.613893 
L 236.827571 140.332994 
L 237.024873 140.194127 
L 237.181374 139.795861 
L 237.179788 139.283138 
L 236.836418 139.265344 
L 236.640378 139.403903 
L 236.752606 139.413406 
L 236.951577 139.350582 
L 236.60668 139.182231 
L 236.671688 139.112713 
L 236.138492 138.123617 
L 236.279528 137.5706 
L 236.129034 137.46128 
L 236.485621 137.162806 
L 236.110001 137.178148 
L 236.167891 136.992978 
L 236.285433 137.100142 
L 236.269563 137.053101 
L 236.55128 136.919235 
L 237.063166 135.910936 
L 236.848992 135.408431 
L 236.611502 135.208589 
L 237.034421 135.288822 
L 237.086126 135.068263 
L 237.262799 134.830614 
L 237.210718 134.568978 
L 237.033037 134.856776 
L 236.982649 134.939294 
L 236.99152 135.255244 
L 236.948321 134.983621 
L 237.253619 135.113234 
L 237.268315 134.828306 
L 237.428508 134.741011 
L 237.384826 134.1577 
L 237.152506 134.11953 
L 237.1102 134.245727 
L 237.378957 134.166632 
L 237.189975 134.146384 
L 237.23047 133.940313 
L 237.077755 133.457433 
L 236.841161 133.681776 
L 236.777401 133.840492 
L 236.594574 133.462442 
L 236.737486 133.118465 
L 236.605395 132.691973 
L 236.847636 132.439998 
L 236.747316 132.124442 
L 237.111461 131.09406 
L 236.753062 130.831219 
L 236.376434 129.950725 
L 236.662556 129.988216 
L 236.418884 129.430927 
L 235.941147 128.030541 
L 236.068907 128.080926 
L 236.222102 127.853263 
L 236.117333 127.311483 
L 236.029793 127.133527 
L 236.161047 127.05262 
L 236.140697 126.796451 
L 235.889478 126.710025 
L 235.830541 126.456593 
L 236.153838 126.431275 
L 236.266859 126.648702 
L 236.182916 126.697048 
L 236.284378 126.792037 
L 236.081327 127.009 
L 235.819112 126.714411 
L 235.925737 126.323046 
L 235.78825 125.78526 
L 236.050052 125.546336 
L 235.92153 124.840823 
L 236.255942 124.926034 
L 236.094726 124.844056 
L 236.179827 124.021037 
L 236.499139 123.605966 
L 236.400532 123.218451 
L 236.479146 122.975309 
L 236.347844 122.745885 
L 236.483158 122.364439 
L 236.174815 122.392274 
L 236.104572 121.537585 
L 236.54212 121.421903 
L 236.603175 121.277042 
L 236.733667 121.359159 
L 236.720609 121.009547 
L 236.644526 121.258493 
L 236.337649 120.964047 
L 236.416092 120.9517 
L 236.663123 120.803465 
L 236.290723 120.58115 
L 237.265563 119.982584 
L 236.944213 120.135514 
L 236.681138 120.043524 
L 236.939078 119.845029 
L 236.743628 120.000239 
L 236.643102 119.334889 
L 236.103236 119.204653 
L 235.968571 118.458429 
L 235.628838 118.486705 
L 235.819683 117.991601 
L 235.927958 118.05443 
L 235.84982 118.130282 
L 236.139598 117.944014 
L 235.9044 117.854759 
L 235.851482 118.055747 
L 235.599986 118.087619 
L 235.974484 117.642705 
L 235.741958 117.767964 
L 235.915332 117.446075 
L 235.70893 117.226701 
L 235.75596 117.072044 
L 235.28795 116.773995 
L 235.365045 116.644281 
L 235.15877 116.609734 
L 235.254228 116.396987 
L 234.970545 116.257742 
L 234.78587 115.560848 
L 234.72125 116.099566 
L 234.987505 115.876503 
L 234.851096 115.679181 
L 235.077614 115.5017 
L 235.090232 115.325235 
L 234.979999 115.285662 
L 235.335126 115.462332 
L 235.219825 115.525368 
L 235.218536 115.353638 
L 235.575785 115.476069 
L 235.96754 114.35739 
L 235.941032 114.494487 
L 235.776496 114.487818 
L 235.260815 114.963536 
L 235.019093 114.570274 
L 235.264582 114.270923 
L 235.313229 114.398215 
L 235.091644 113.684144 
L 235.035994 113.748787 
L 234.829977 113.645225 
L 235.023027 113.544044 
L 234.800815 113.503844 
L 234.523219 112.682508 
L 234.176784 112.80347 
L 234.338278 112.697746 
L 234.309925 112.551792 
L 233.90805 112.279191 
L 234.188256 112.26659 
L 234.226878 111.873173 
L 234.443773 111.793745 
L 233.922012 111.709887 
L 233.979903 111.415316 
L 234.139033 111.638695 
L 234.015401 111.360264 
L 234.19211 111.081779 
L 233.998235 110.458935 
L 234.112862 110.497606 
L 234.432372 110.29408 
L 234.021769 110.1648 
L 234.375112 110.088648 
L 234.464849 109.794988 
L 234.55842 109.620693 
L 234.253315 109.481236 
L 234.490124 109.407699 
L 234.453888 109.777842 
L 234.260203 109.840174 
L 234.63689 110.027676 
L 234.148697 109.820295 
L 234.384843 109.409113 
L 234.571374 109.256865 
L 234.387682 109.21749 
L 234.221723 108.881327 
L 233.814903 109.18819 
L 233.531026 108.919381 
L 233.581212 108.953156 
L 232.70045 107.670602 
L 232.524098 107.883329 
L 232.928221 108.05053 
L 232.815735 108.188369 
L 232.949686 107.896397 
L 232.843314 107.542861 
L 233.232869 106.201441 
L 232.975354 105.603276 
L 232.671689 105.693542 
L 232.834559 104.974996 
L 232.350628 104.447491 
L 232.531842 104.142467 
L 232.723009 104.198834 
L 233.084148 103.930287 
L 233.104712 104.070503 
L 233.12415 103.698808 
L 233.284851 103.853985 
L 233.100608 104.10104 
L 233.276944 103.594903 
L 233.763425 103.182762 
L 233.46645 103.072429 
L 233.373132 102.500015 
L 233.580125 102.101923 
L 233.398285 102.257824 
L 233.143454 101.680792 
L 232.965341 101.641515 
L 232.929054 101.437756 
L 232.839615 101.588807 
L 233.252581 100.828347 
L 233.114967 100.480613 
L 233.45721 100.409111 
L 233.249472 100.319396 
L 232.324238 99.288051 
L 232.194448 99.03982 
L 232.229688 99.136151 
L 232.116853 99.299226 
L 232.73801 99.21076 
L 232.717719 99.166933 
L 233.015376 98.7675 
L 232.860009 98.676344 
L 232.928729 98.595678 
L 232.992781 98.31993 
L 233.241692 98.23031 
L 232.947905 98.150263 
L 232.679846 97.957421 
L 232.649094 97.505009 
L 232.432057 97.188272 
L 232.27661 97.243952 
L 232.008634 97.116315 
L 231.839689 96.684196 
L 231.511055 96.889422 
L 231.385463 96.638796 
L 231.301322 95.343775 
L 231.515476 94.865737 
L 231.380487 94.816703 
L 231.479379 94.545394 
L 231.248003 94.44687 
L 230.927315 94.664351 
L 230.801276 94.34767 
L 230.908912 94.088128 
L 231.085363 94.314726 
L 230.681616 94.427142 
L 230.513845 94.233257 
L 230.46812 94.277638 
L 230.321338 94.303365 
L 229.991661 94.242814 
L 229.795731 93.863468 
L 229.553998 93.861995 
L 229.307018 94.172621 
L 228.996474 92.990526 
L 228.392491 92.538812 
L 228.578646 92.067925 
L 228.91899 92.273032 
L 228.873694 92.261213 
L 229.018386 91.875961 
L 229.111366 91.518785 
L 229.412608 90.656032 
L 229.318589 90.598066 
L 229.363406 90.176396 
L 229.111081 90.035649 
L 228.909695 90.200918 
L 228.569327 90.23113 
L 228.504144 90.502953 
L 228.806191 90.405309 
L 228.743665 90.462034 
L 228.42586 90.733333 
L 228.534836 90.615443 
L 228.479408 90.455471 
L 228.512424 89.950143 
L 228.420812 90.047299 
L 228.487541 90.023733 
L 228.626024 90.190957 
L 228.477263 90.187543 
L 228.602442 90.088107 
L 228.547002 89.994845 
L 228.60745 89.973385 
L 228.609068 89.844308 
L 228.615611 90.199859 
L 228.759622 90.345531 
L 228.514189 90.360397 
L 228.415435 90.527221 
L 228.312545 89.977885 
L 228.292718 90.028206 
L 228.010681 90.238894 
L 227.780748 90.056249 
L 227.573311 90.062962 
L 227.504893 89.722713 
L 227.440848 89.007736 
L 227.561007 88.775626 
L 227.448069 88.864705 
L 227.163819 89.089339 
L 226.491846 89.131432 
L 226.370922 89.264871 
L 225.935281 88.702275 
L 225.915113 88.488612 
L 225.890762 88.530102 
L 225.781389 88.29833 
L 225.697941 88.016899 
L 225.323162 88.059685 
L 225.22095 87.933725 
L 225.218829 87.34374 
L 224.973487 87.177242 
L 224.814848 86.790185 
L 224.66613 86.935707 
L 224.318117 86.348744 
L 224.116263 86.0193 
L 224.426229 85.833372 
L 223.985358 85.627327 
L 224.265488 85.695939 
L 224.109455 85.587851 
L 224.258105 85.307685 
L 224.066537 85.171419 
L 224.195781 85.046208 
L 224.365202 84.190789 
L 223.939534 83.914938 
L 224.056358 83.574593 
L 224.120994 83.914335 
L 224.175562 82.546819 
L 224.343995 82.267525 
L 224.290399 81.771342 
L 224.404427 80.852397 
L 224.290403 80.906485 
L 224.339851 80.730271 
L 224.211234 80.747164 
L 224.377732 80.539671 
L 224.243707 80.200854 
L 224.121613 79.772407 
L 224.14891 79.394867 
L 224.042571 79.271778 
L 223.841899 79.353441 
L 223.893952 79.087074 
L 223.92152 79.242251 
L 223.685021 78.92836 
L 223.796959 79.035568 
L 223.789818 78.833774 
L 223.93413 78.426161 
L 223.72362 78.149802 
L 223.609218 78.33349 
L 223.875192 78.205269 
L 224.068179 77.979374 
L 224.149065 78.102411 
L 224.239198 77.871563 
L 223.976119 77.708558 
L 223.923395 77.448969 
L 223.752353 77.379777 
L 223.833191 77.156137 
L 224.300685 76.71811 
L 224.265108 76.595211 
L 224.327297 76.217513 
L 224.284451 76.48106 
L 224.077537 76.364819 
L 223.873717 76.579837 
L 223.584534 76.320212 
L 224.006105 75.661717 
L 223.986243 75.86507 
L 224.412493 75.601067 
L 224.273701 75.65774 
L 224.165807 75.908661 
L 223.160548 75.162591 
L 222.989799 75.115689 
L 222.981158 74.844588 
L 223.437529 74.645102 
L 223.315412 74.576509 
L 223.308119 74.430345 
L 223.349558 74.493624 
L 223.594412 74.492653 
L 223.468729 74.744886 
L 223.614342 74.618105 
L 223.666387 74.619378 
L 223.466699 74.545487 
L 223.379821 74.213205 
L 223.304285 74.376086 
L 222.70834 74.338626 
L 222.967727 74.387879 
L 223.180117 73.873546 
L 222.393882 73.295672 
L 222.371664 73.464914 
L 222.186849 73.586754 
L 222.183812 73.203964 
L 221.976117 73.379702 
L 221.557643 73.479277 
L 221.871019 73.047832 
L 221.638707 72.868073 
L 221.575662 72.408529 
L 221.417725 72.317262 
L 221.683686 72.167938 
L 221.626002 72.083904 
L 221.725438 71.377301 
L 221.357118 71.039649 
L 221.595853 70.707081 
L 221.339658 70.700272 
L 221.660295 70.211048 
L 221.877827 70.348472 
L 221.4934 70.021313 
L 221.482729 70.286374 
L 221.223663 70.098177 
L 221.219947 69.942818 
L 221.27695 69.97282 
L 221.332421 69.636822 
L 221.072237 69.18532 
L 221.024752 68.243693 
L 221.168282 68.352987 
L 220.90855 68.255998 
L 220.887895 67.883395 
L 220.938354 67.909816 
L 220.753901 67.556465 
L 220.933159 67.48014 
L 221.10076 67.282577 
L 221.013502 67.077107 
L 221.006888 67.128994 
L 221.254192 66.860431 
L 221.020057 66.685177 
L 221.167394 66.680577 
L 220.90698 66.518099 
L 220.918654 66.538735 
L 220.939968 66.073589 
L 220.858099 66.12201 
L 220.736318 66.366987 
L 220.972544 66.637093 
L 221.246115 66.38428 
L 221.131686 66.420753 
L 220.910109 66.091024 
L 220.478517 66.043376 
L 220.676818 65.984526 
L 220.430326 65.792396 
L 220.311745 65.311015 
L 219.337505 64.711164 
L 219.41416 64.897188 
L 219.433602 64.518542 
L 219.454426 64.823487 
L 219.30834 64.417433 
L 219.538032 63.311493 
L 219.333581 63.028944 
L 219.329981 62.190635 
L 219.079807 62.298656 
L 219.250806 61.686941 
L 219.250259 61.240027 
L 219.429425 61.095314 
L 219.572567 59.512982 
L 220.226418 58.52389 
L 220.213578 58.277497 
L 219.739363 58.057129 
L 219.724104 58.251702 
L 219.851726 58.205058 
L 219.491802 57.065349 
L 219.39701 56.958402 
L 219.342323 57.089696 
L 219.363693 56.958156 
L 219.267062 56.188802 
L 219.6146 56.247061 
L 219.401949 56.057009 
L 219.420064 55.679187 
L 218.734211 54.782909 
L 218.395062 54.606473 
L 218.3382 54.232578 
L 218.208818 54.162311 
L 217.968675 52.944917 
L 218.095442 52.637679 
L 218.078403 52.255837 
L 217.902877 51.911761 
L 218.018478 51.465823 
L 217.755708 51.410181 
L 217.73354 50.821425 
L 218.007728 50.737161 
L 217.971518 50.681455 
L 217.963744 50.967811 
L 218.300313 51.075566 
L 218.690752 50.98537 
L 218.587446 50.745948 
L 218.168746 50.305426 
L 218.167015 50.308107 
L 218.219336 50.143845 
L 217.889004 50.117515 
L 217.797894 49.339135 
L 217.874063 49.388369 
L 218.095708 49.400694 
L 218.092363 48.737484 
L 218.244286 48.888954 
L 218.338502 48.793919 
L 218.150505 48.510561 
L 218.391152 47.985117 
L 218.333626 47.900861 
L 218.535325 47.616583 
L 218.662473 47.756751 
L 218.420115 47.789212 
L 218.355916 47.351244 
L 218.596327 47.418782 
L 218.407662 47.749415 
L 218.072748 47.652747 
L 218.28071 47.37985 
L 217.765197 47.121847 
L 217.912231 47.101179 
L 217.509593 46.819185 
L 217.329945 45.745987 
L 217.574687 45.718047 
L 217.459974 45.551684 
L 217.544199 45.299708 
L 217.672568 45.338418 
L 217.596837 45.257429 
L 217.39018 44.936099 
L 217.22424 44.541361 
L 217.345357 44.210442 
L 217.061446 44.046974 
L 217.123377 43.550064 
L 216.991255 43.286882 
L 216.667509 43.192601 
L 216.980961 42.896292 
L 216.92989 42.886046 
L 216.784732 42.632119 
L 217.114681 42.788553 
L 216.860439 42.980327 
L 216.648801 42.94145 
L 216.579642 42.662446 
L 216.48116 42.897133 
L 216.705926 42.163768 
L 216.439361 41.813308 
L 216.113374 41.658492 
L 216.011957 41.32176 
L 216.062855 41.317969 
L 216.364166 40.760056 
L 216.153004 40.586856 
L 216.340068 40.638763 
L 216.02651 40.701202 
L 215.94857 40.553698 
L 216.227965 40.113866 
L 216.116516 40.240132 
L 216.074005 39.443574 
L 215.518735 39.273238 
L 215.416474 39.12801 
L 215.483003 38.653925 
L 215.19687 38.080555 
L 215.162811 38.126807 
L 215.254257 38.156667 
L 215.149567 37.859184 
L 215.310151 37.497573 
L 214.747265 36.88589 
L 214.542751 36.447819 
L 214.614201 36.058284 
L 214.538014 35.833027 
L 214.699401 35.173949 
L 214.42191 35.061602 
L 214.504939 33.760799 
L 214.810545 33.632615 
L 214.925693 32.931123 
L 214.781936 32.816421 
L 214.926149 32.027802 
L 214.835992 32.301453 
L 214.576068 32.107855 
L 214.319266 32.112289 
L 214.080546 31.738798 
L 214.115729 31.826528 
L 213.802901 30.65303 
L 214.091136 30.260013 
L 213.951507 30.045875 
L 213.489903 29.61146 
L 213.405193 29.096571 
L 213.487473 29.098499 
L 213.332666 29.071177 
L 213.173611 29.42151 
L 213.116593 29.273118 
L 213.195758 28.965143 
L 213.342937 29.152333 
L 212.852955 28.859331 
L 212.70208 29.100648 
L 212.38895 29.001133 
L 212.414106 28.820367 
L 212.421728 28.828472 
L 212.693925 28.451127 
L 213.202485 28.356473 
L 213.265812 28.187215 
L 213.864802 28.026181 
L 213.726601 27.55281 
L 213.491444 27.646924 
L 213.300309 27.081097 
L 213.374846 27.104461 
L 213.465796 26.813799 
L 213.022409 26.413739 
L 213.144463 26.447485 
L 213.543016 26.294794 
L 213.490724 26.142 
L 213.218905 26.427428 
L 213.112257 26.235464 
L 212.653587 26.107604 
L 212.680786 25.764639 
L 213.02389 25.69101 
L 213.120324 25.296359 
L 213.032955 24.824805 
L 213.230014 24.798871 
L 212.65487 24.47716 
L 213.059573 24.111592 
L 212.993634 24.074412 
L 212.901419 23.617323 
L 213.059816 23.392685 
L 213.069181 22.926911 
L 212.668398 22.667036 
L 212.847885 22.551565 
L 212.688443 22.339464 
L 212.441707 22.136112 
L 212.481565 22.172506 
L 212.571278 21.803044 
L 212.41712 21.77558 
L 212.418777 21.848035 
L 212.446854 21.897127 
L 212.327324 21.764231 
L 212.143436 21.775136 
L 212.192333 21.473941 
L 211.727013 19.911091 
L 211.828965 19.670472 
L 211.800518 19.699697 
L 211.57736 19.438505 
L 211.722063 19.153038 
L 211.233518 19.211202 
L 211.148699 18.947766 
L 211.47516 18.443378 
L 211.439898 17.87188 
L 211.627873 17.694159 
L 211.68659 16.797064 
L 211.544102 16.584424 
L 211.299609 16.474576 
L 211.323056 15.887414 
L 211.298707 15.957958 
L 211.16898 15.835238 
L 211.327224 16.106184 
L 211.337833 15.970513 
L 211.39521 15.762592 
L 211.232874 15.213205 
L 211.235017 15.290879 
L 211.368315 15.07628 
L 211.162685 14.595264 
L 211.699176 13.810801 
L 211.463496 13.583879 
L 211.714772 13.330007 
L 211.566913 13.175857 
L 211.47133 11.893906 
L 211.41636 11.97909 
L 211.287624 11.658696 
L 211.317503 10.99647 
L 211.447704 11.018335 
L 211.904278 10.542767 
L 211.89141 10.643281 
L 211.923304 10.250384 
L 211.443217 9.89342 
L 211.572284 10.002667 
L 211.330535 9.763158 
L 211.175645 9.818173 
L 211.674641 9.621998 
L 211.718331 9.278517 
L 211.308016 8.502302 
L 211.313068 7.842606 
L 211.526571 7.563428 
L 211.442708 7.058651 
L 211.814775 6.884642 
L 211.896321 5.665685 
L 211.697983 5.340818 
L 211.184722 4.940418 
L 211.027154 5.056421 
L 211.29327 4.849864 
L 211.483924 4.36792 
L 211.696888 4.535005 
L 211.489898 4.327902 
L 211.479437 3.813949 
L 211.342152 3.604585 
L 211.447115 3.165594 
L 211.350277 2.753179 
L 211.402376 2.468219 
L 210.56835 1.334668 
L 210.632131 1.024512 
L 210.62055 1.09385 
L 210.256171 -0.437943 
L 210.233539 -0.331957 
L 210.573442 -1 
L 210.573442 -1 
" clip-path="url(#pdbc9888c9d)" style="fill: none; stroke: #aaaa22; stroke-width: 1.5; stroke-linecap: square"/>
   </g>
   <g id="patch_5">
    <path d="M 186.264 307.584 
L 186.264 41.472 
" style="fill: none; stroke: #000000; stroke-width: 0.8; stroke-linejoin: miter; stroke-linecap: square"/>
   </g>
   <g id="patch_6">
    <path d="M 286.056 307.584 
L 286.056 41.472 
" style="fill: none; stroke: #000000; stroke-width: 0.8; stroke-linejoin: miter; stroke-linecap: square"/>
   </g>
   <g id="patch_7">
    <path d="M 186.264 307.584 
L 286.056 307.584 
" style="fill: none; stroke: #000000; stroke-width: 0.8; stroke-linejoin: miter; stroke-linecap: square"/>
   </g>
   <g id="patch_8">
    <path d="M 186.264 41.472 
L 286.056 41.472 
" style="fill: none; stroke: #000000; stroke-width: 0.8; stroke-linejoin: miter; stroke-linecap: square"/>
   </g>
   <g id="PathCollection_1">
    <defs>
     <path id="m933fb63fdf" d="M 0 1.414214 
C 0.375054 1.414214 0.734797 1.265203 1 1 
C 1.265203 0.734797 1.414214 0.375054 1.414214 0 
C 1.414214 -0.375054 1.265203 -0.734797 1 -1 
C 0.734797 -1.265203 0.375054 -1.414214 0 -1.414214 
C -0.375054 -1.414214 -0.734797 -1.265203 -1 -1 
C -1.265203 -0.734797 -1.414214 -0.375054 -1.414214 0 
C -1.414214 0.375054 -1.265203 0.734797 -1 1 
C -0.734797 1.265203 -0.375054 1.414214 0 1.414214 
z
" style="stroke: #000000"/>
    </defs>
    <g clip-path="url(#pdbc9888c9d)"/>
   </g>
   <g id="PathCollection_2">
    <g clip-path="url(#pdbc9888c9d)">
     <use xlink:href="#m933fb63fdf" x="189.696835" y="290.832817" style="stroke: #000000"/>
    </g>
   </g>
   <g id="PathCollection_3">
    <g clip-path="url(#pdbc9888c9d)"/>
   </g>
   <g id="PathCollection_4">
    <g clip-path="url(#pdbc9888c9d)">
     <use xlink:href="#m933fb63fdf" x="202.807242" y="290.596829" style="stroke: #000000"/>
    </g>
   </g>
  </g>
 </g>
 <defs>
  <clipPath id="pdbc9888c9d">
   <rect x="186.264" y="41.472" width="99.792" height="266.112"/>
  </clipPath>
 </defs>
</svg>
